<?xml version="1.0" standalone="no"?>
<!DOCTYPE svg PUBLIC "-//W3C//DTD SVG 20010904//EN"
 "http://www.w3.org/TR/2001/REC-SVG-20010904/DTD/svg10.dtd">
<svg version="1.0" xmlns="http://www.w3.org/2000/svg"
 width="2400.000000pt" height="2400.000000pt" viewBox="0 0 2400.000000 2400.000000"
 preserveAspectRatio="xMidYMid meet">
<metadata>
Created by potrace 1.14, written by Peter Selinger 2001-2017
</metadata>
<g transform="translate(0.000000,2400.000000) scale(0.100000,-0.100000)"
fill="#000000" stroke="none">
<path d="M14961 22629 c-205 -41 -404 -160 -541 -323 l-72 -86 -59 63 c-43 47
-78 74 -132 101 -126 62 -183 69 -482 62 -142 -4 -261 -9 -263 -11 -11 -11 39
-74 82 -103 59 -40 123 -58 244 -71 114 -12 182 -41 253 -108 58 -54 187 -244
275 -405 32 -59 66 -117 75 -129 17 -22 17 -22 38 27 12 27 33 60 46 74 13 14
62 99 109 189 104 198 182 318 256 391 89 88 224 151 369 171 108 15 205 68
236 130 15 28 15 29 -7 29 -13 0 -104 2 -203 4 -99 3 -200 0 -224 -5z"/>
<path d="M6171 20585 c-118 -33 -219 -110 -291 -220 -23 -36 -47 -65 -52 -65
-6 0 -41 29 -79 65 -84 79 -140 100 -274 100 -82 0 -102 -4 -228 -48 -117 -41
-147 -48 -198 -45 l-59 3 0 -31 c0 -38 19 -56 93 -88 88 -39 121 -41 212 -12
100 32 126 32 193 1 106 -49 131 -78 276 -322 43 -73 84 -133 92 -133 20 0 37
31 121 212 163 353 257 438 485 438 78 0 141 24 183 71 62 69 56 74 -102 75
-76 1 -178 5 -228 8 -65 4 -105 2 -144 -9z"/>
<path d="M13823 16600 c-62 -13 -112 -42 -176 -105 -73 -72 -124 -159 -148
-253 -34 -134 3 -291 95 -399 99 -114 279 -171 417 -129 163 50 293 171 333
310 28 100 30 178 7 252 -44 133 -156 261 -267 303 -65 24 -193 34 -261 21z"/>
<path d="M15470 16244 c-144 -24 -240 -97 -303 -231 -44 -96 -48 -176 -10
-270 37 -94 80 -153 139 -194 65 -45 107 -58 184 -59 238 -1 410 152 410 364
0 78 -39 206 -62 206 -4 0 -8 6 -8 13 0 23 -94 105 -155 135 -58 29 -143 44
-195 36z"/>
<path d="M13855 15530 l-270 -7 -65 -30 c-99 -45 -190 -138 -240 -246 -29 -62
-40 -97 -39 -129 1 -24 -3 -55 -9 -69 -7 -18 -9 -220 -7 -611 l4 -584 -57 4
c-47 3 -66 -1 -105 -22 l-47 -25 0 209 c1 126 -4 227 -10 252 -38 140 -174
268 -315 295 -29 6 -159 7 -315 4 l-265 -6 -75 -36 c-106 -51 -152 -95 -197
-187 l-38 -77 -2 -404 c-2 -378 -4 -406 -21 -423 -17 -18 -93 -38 -157 -41
l-30 -2 -5 280 c-4 230 -8 285 -21 310 -9 17 -22 51 -29 78 -18 68 -74 127
-157 165 -114 52 -124 53 -492 39 l-213 -8 -67 -33 c-137 -70 -180 -117 -232
-251 l-30 -79 1 -472 c1 -260 -2 -479 -7 -487 -8 -14 -82 -34 -160 -44 l-41
-5 -4 264 c-4 241 -6 268 -26 318 -60 150 -202 274 -344 298 -24 4 -170 7
-325 6 -253 0 -286 -2 -325 -19 -129 -57 -264 -199 -309 -327 -10 -29 -10 -43
-1 -63 6 -14 7 -25 2 -25 -5 0 -7 -194 -4 -498 l6 -498 -24 -11 c-87 -42 -140
-63 -162 -63 l-26 0 0 239 c0 131 -5 263 -10 292 -26 137 -126 263 -260 328
l-75 36 -265 3 c-424 6 -503 -12 -627 -138 -66 -68 -79 -92 -114 -209 -22 -74
-22 -79 -16 -575 5 -385 3 -505 -6 -516 -7 -9 -32 -22 -57 -29 -25 -7 -64 -21
-88 -32 -23 -10 -46 -19 -51 -19 -5 0 -8 118 -8 263 l2 262 -33 61 c-31 56
-126 164 -165 185 -57 32 -305 52 -457 37 -63 -6 -126 -11 -140 -11 -70 2
-197 -20 -230 -40 -69 -42 -110 -81 -155 -148 -76 -114 -72 -78 -69 -626 l3
-493 -25 -30 c-15 -17 -36 -30 -48 -30 -12 0 -53 -16 -92 -35 -38 -19 -72 -35
-76 -35 -5 0 -8 93 -8 208 -1 244 -10 300 -71 422 -49 95 -124 179 -185 205
-99 43 -130 46 -444 50 -281 3 -310 2 -363 -16 -120 -40 -193 -109 -254 -240
l-39 -84 6 -570 c3 -322 1 -572 -4 -574 -5 -2 -17 -12 -27 -22 -11 -11 -22
-18 -27 -17 -4 1 -20 -4 -37 -11 -54 -22 -1178 -587 -1273 -640 -108 -60 -396
-201 -410 -201 -5 0 -47 -21 -93 -47 -46 -25 -147 -76 -224 -113 -77 -37 -170
-87 -205 -112 -36 -25 -98 -62 -139 -82 -41 -20 -93 -54 -117 -75 -23 -22 -59
-50 -80 -64 -55 -35 -129 -110 -148 -152 -10 -19 -21 -61 -27 -93 -9 -55 -7
-1087 3 -1237 13 -198 30 -384 38 -415 6 -19 10 -57 10 -85 0 -27 7 -79 16
-115 8 -36 15 -87 15 -113 0 -26 7 -69 15 -95 8 -26 17 -69 20 -97 3 -27 9
-63 14 -80 5 -16 11 -52 15 -80 4 -27 22 -111 40 -185 18 -74 48 -196 66 -270
61 -257 172 -633 256 -870 171 -482 233 -635 363 -905 156 -323 220 -457 220
-465 0 -4 11 -23 24 -43 32 -46 21 -56 -76 -68 -40 -5 -86 -13 -103 -19 -64
-21 -434 -114 -600 -151 -217 -48 -413 -78 -630 -95 -109 -9 -418 -9 -506 0
-35 3 -95 8 -134 11 -38 3 -89 8 -113 11 -24 3 -62 7 -85 9 -23 3 -66 9 -96
15 -29 5 -73 10 -97 10 l-44 0 0 -320 c0 -298 1 -320 18 -321 40 -4 48 -6 73
-16 23 -10 174 -27 224 -25 11 1 22 -3 25 -8 3 -5 59 -16 123 -25 134 -17 594
-20 763 -5 56 5 147 10 202 11 55 1 137 7 183 14 46 8 104 16 129 20 25 3 56
8 70 10 14 2 79 8 145 15 66 6 151 17 190 25 38 8 80 15 93 15 54 0 598 135
827 205 61 18 171 50 245 70 141 39 458 142 475 155 6 4 21 10 35 13 35 7 391
131 415 144 11 6 39 17 63 24 23 7 42 16 42 21 0 5 6 8 13 6 18 -4 87 23 87
34 0 5 5 6 10 3 6 -3 10 -1 10 5 0 6 4 9 9 5 5 -3 12 -1 16 5 9 15 75 41 86
34 5 -3 9 0 9 7 0 7 3 10 6 6 3 -3 15 3 26 13 11 10 27 16 36 13 8 -4 21 2 28
12 8 10 14 15 14 11 0 -5 7 -3 15 4 8 7 15 10 15 6 0 -4 13 0 29 8 25 13 31
14 41 1 9 -11 7 -19 -12 -38 -32 -33 -104 -87 -115 -87 -18 0 -113 -96 -116
-117 -6 -48 -90 -102 -575 -372 -358 -199 -789 -363 -1227 -466 -60 -14 -155
-37 -210 -49 -401 -94 -805 -126 -1355 -107 -346 13 -794 65 -945 111 -16 5
-48 12 -70 15 -22 2 -65 11 -95 19 -30 8 -58 12 -62 10 -5 -3 -8 -126 -8 -274
l0 -269 38 -11 c47 -13 208 -45 337 -65 129 -21 374 -33 805 -40 293 -5 352
-4 395 9 34 11 94 16 185 16 74 1 180 6 235 11 55 6 143 14 195 17 52 4 100
10 105 14 6 4 40 9 75 13 76 7 194 29 301 56 41 10 85 19 97 19 33 0 381 81
472 110 40 12 100 28 175 45 143 34 616 197 812 282 18 7 50 20 70 27 45 16
136 58 143 65 3 3 13 7 24 9 32 6 356 168 411 206 16 11 34 21 40 22 5 1 52
27 104 58 51 31 95 56 97 56 6 0 138 89 274 184 74 52 215 149 312 215 98 67
209 144 247 173 38 29 119 89 180 132 60 44 107 84 104 89 -3 6 -1 7 5 3 6 -3
26 7 44 24 18 16 71 60 118 96 47 36 91 73 98 82 6 9 12 12 12 8 0 -5 15 3 33
16 61 47 202 144 250 171 26 16 45 32 41 38 -3 5 -2 9 3 8 4 -1 11 0 16 1 4 1
10 3 15 4 6 1 87 48 132 76 18 11 97 56 172 98 262 146 650 306 908 376 30 8
89 23 130 34 219 59 564 126 780 152 213 24 528 37 555 22 16 -8 13 -13 -25
-41 -24 -17 -50 -31 -58 -31 -8 0 -53 -25 -101 -56 -47 -30 -183 -110 -301
-176 -282 -158 -428 -256 -820 -553 -369 -279 -932 -701 -1093 -820 -60 -44
-159 -117 -220 -163 -62 -45 -173 -124 -247 -175 -74 -51 -200 -138 -280 -194
-138 -96 -721 -463 -955 -601 -60 -35 -185 -103 -277 -149 -92 -46 -167 -89
-165 -96 1 -7 -3 -11 -9 -10 -5 1 -10 -9 -10 -22 0 -19 3 -21 17 -12 14 9 22
7 38 -7 11 -10 25 -15 30 -11 14 8 37 13 141 30 74 12 160 29 340 65 25 5 63
15 85 21 22 6 57 13 77 16 23 3 35 9 31 16 -3 5 -1 7 5 3 10 -6 157 35 194 55
10 5 24 9 33 9 15 0 149 43 200 64 17 7 75 27 130 45 55 18 108 36 117 42 10
5 26 9 36 9 19 0 263 81 317 105 16 7 59 23 95 36 36 12 83 29 105 39 22 9 65
25 95 35 30 10 69 23 85 30 17 7 68 27 115 45 47 18 104 41 127 51 24 11 48
19 53 19 6 0 25 8 43 17 18 9 39 18 48 20 46 8 571 264 724 353 50 29 113 65
140 80 28 14 91 50 140 80 50 29 110 64 135 78 25 14 88 50 140 80 52 30 120
68 150 85 61 34 162 97 170 106 3 3 10 7 16 8 21 4 384 226 384 235 0 5 5 6
10 3 6 -3 10 -2 10 3 0 5 6 9 13 9 6 0 66 33 132 73 373 227 768 433 1018 530
31 12 57 26 57 31 0 5 8 9 18 9 9 0 49 12 87 26 358 134 768 252 1030 295 33
6 61 14 63 20 2 5 8 9 13 9 6 0 8 -4 5 -9 -4 -5 2 -8 11 -6 103 21 207 35 298
40 61 3 128 11 150 17 22 5 122 11 222 12 149 2 183 0 183 -11 0 -8 -17 -21
-37 -29 -52 -20 -68 -30 -66 -41 1 -6 -18 -11 -43 -12 -25 0 -61 -8 -81 -16
-19 -8 -41 -15 -49 -15 -7 0 -25 -5 -41 -12 -15 -6 -30 -12 -33 -13 -80 -24
-89 -28 -74 -39 14 -11 14 -14 -3 -33 -10 -12 -47 -34 -83 -48 -316 -130 -739
-371 -1105 -631 -162 -115 -172 -123 -561 -435 -546 -437 -910 -701 -1479
-1071 -481 -312 -1407 -695 -2125 -877 -230 -59 -314 -76 -640 -130 -430 -71
-503 -82 -610 -97 -58 -7 -143 -21 -190 -29 -47 -9 -125 -23 -175 -30 -49 -8
-128 -21 -175 -30 -47 -9 -114 -20 -150 -25 -36 -6 -92 -14 -125 -20 -58 -9
-373 -55 -485 -70 -30 -4 -107 -15 -170 -25 -110 -16 -171 -22 -435 -44 -66
-6 -160 -15 -210 -20 -307 -34 -952 -38 -1210 -8 -77 10 -178 22 -225 27 -47
6 -130 15 -185 20 -55 6 -154 17 -220 26 -66 8 -165 19 -220 24 -107 10 -197
19 -420 45 -77 9 -176 20 -220 25 -147 17 -228 30 -259 40 -17 5 -139 30 -271
55 -132 25 -292 57 -355 71 -63 13 -118 24 -122 24 -13 0 -10 -1038 3 -1046
28 -17 126 -37 249 -49 124 -13 136 -13 147 2 12 16 14 15 26 -1 12 -17 15
-17 50 0 31 15 43 16 70 6 19 -7 49 -12 68 -12 30 -1 32 -2 17 -14 -15 -11 -9
-14 45 -25 72 -15 131 -25 242 -41 44 -6 118 -18 165 -26 47 -8 110 -19 141
-25 31 -5 77 -18 102 -29 24 -11 61 -21 80 -22 41 -3 37 -14 -8 -21 -42 -6
1296 -1 1480 6 83 3 175 9 205 13 30 4 94 6 142 5 52 0 89 3 93 9 12 19 147 1
167 -21 16 -19 30 -20 350 -17 321 3 335 4 378 25 25 13 39 23 33 23 -7 0 -13
4 -13 9 0 6 15 7 34 4 35 -6 80 12 71 28 -4 5 -21 9 -39 9 -28 0 -34 4 -38 25
-4 17 -1 25 8 25 8 0 14 -5 14 -11 0 -6 7 -8 15 -5 9 3 38 1 65 -5 43 -9 57
-8 107 11 32 12 68 24 81 27 17 4 22 11 19 24 -4 14 0 19 13 19 10 0 25 7 34
15 8 8 26 15 40 15 15 0 34 4 44 9 9 6 30 13 46 16 l28 6 -26 22 c-29 26 -33
37 -11 37 8 0 15 -4 15 -9 0 -5 17 -7 38 -5 62 6 102 16 102 25 0 5 10 7 22 4
13 -3 30 -1 38 5 13 9 13 12 -3 21 -25 15 -11 29 30 29 31 0 34 2 23 15 -18
22 -7 28 23 14 14 -6 33 -9 43 -5 16 6 16 8 -1 26 -16 17 -16 20 -2 20 8 0 17
-6 20 -12 3 -9 13 -3 30 16 13 16 29 26 35 22 6 -3 22 -2 37 4 30 11 105 2
105 -13 0 -16 -33 -36 -61 -37 -14 0 -29 -3 -33 -7 -4 -4 -24 -8 -45 -9 -21
-1 -52 -9 -70 -18 -36 -19 -42 -42 -8 -32 12 4 60 11 107 15 87 9 127 16 170
31 58 19 80 21 80 5 0 -21 15 -19 31 5 16 22 59 18 59 -6 0 -8 5 -14 10 -14 6
0 10 7 10 15 0 8 -4 15 -10 15 -5 0 -10 5 -10 10 0 6 11 10 24 10 33 0 46 -38
20 -56 -11 -8 -24 -18 -31 -24 -18 -15 -31 -12 -45 10 -15 24 -24 25 -45 4
-14 -13 -14 -17 -2 -24 21 -14 3 -23 -19 -11 -26 14 -52 14 -52 1 0 -5 7 -7
15 -4 11 5 17 -3 21 -25 7 -32 19 -41 27 -18 2 6 8 9 12 4 5 -4 0 -14 -11 -21
-19 -14 -19 -15 0 -22 12 -5 21 -3 24 4 2 7 11 5 24 -8 13 -12 18 -25 14 -36
-4 -11 1 -24 13 -36 23 -21 41 -24 41 -6 0 6 2 9 5 6 9 -8 -6 -38 -19 -38 -6
0 -18 9 -26 20 -16 23 -36 26 -44 8 -3 -7 -4 -4 -1 8 7 28 -3 54 -21 54 -8 0
-14 5 -14 10 0 6 -7 10 -15 10 -8 0 -15 6 -15 14 0 7 -7 19 -15 26 -12 10 -20
7 -46 -14 -17 -14 -41 -26 -55 -26 -13 0 -24 -4 -24 -10 0 -5 7 -10 15 -10 8
0 15 -4 15 -10 0 -5 -7 -10 -15 -10 -8 0 -15 5 -15 10 0 6 -13 10 -30 10 -16
0 -30 -3 -30 -8 0 -15 59 -60 64 -48 3 8 7 8 13 0 4 -6 16 -14 27 -17 14 -6
17 -13 12 -33 -6 -23 -4 -25 15 -19 13 5 25 2 31 -6 7 -11 11 -11 15 -1 5 13
73 17 73 4 0 -4 -5 -13 -11 -19 -7 -7 0 -12 26 -17 30 -6 34 -10 25 -22 -17
-20 6 -46 34 -39 12 3 15 2 8 -1 -10 -5 -10 -9 -1 -20 17 -21 36 -17 35 8 -1
19 4 23 31 23 17 0 34 3 38 7 9 8 -19 38 -34 38 -6 0 -11 6 -11 14 0 8 -6 16
-12 19 -8 2 -9 8 -4 13 5 5 11 4 13 -3 3 -7 9 -13 15 -13 13 0 38 26 38 39 0
15 6 14 38 -6 49 -31 53 -48 17 -65 -30 -14 -32 -33 -5 -50 11 -7 20 -18 20
-25 0 -9 18 -13 60 -13 33 0 60 4 60 9 0 5 17 12 38 16 58 12 143 14 136 4 -9
-15 13 -10 26 6 9 10 9 15 1 15 -6 0 -11 5 -11 11 0 7 10 9 25 6 14 -2 56 -1
93 3 37 4 71 3 76 -1 14 -12 106 -11 106 1 0 5 -21 9 -47 7 -43 -2 -48 0 -49
20 -2 28 2 28 62 3 54 -24 119 -24 119 -1 0 12 14 15 60 14 33 0 45 1 27 4
-85 11 28 56 123 49 33 -2 47 -1 30 3 -18 4 -25 9 -18 14 6 4 19 4 30 1 15 -5
15 -4 3 5 -22 16 11 25 69 18 26 -3 54 -1 62 4 10 6 6 9 -16 10 l-30 1 35 16
c20 9 57 15 87 14 29 -1 55 3 58 8 3 6 19 10 36 10 16 0 29 5 29 10 0 6 7 10
15 10 8 0 38 11 67 23 121 54 164 59 178 22 5 -14 15 -25 21 -25 6 0 27 -8 46
-17 28 -13 39 -14 54 -4 25 15 59 -2 59 -29 0 -10 6 -20 12 -22 18 -6 115 47
160 87 21 19 43 35 48 35 6 0 10 8 8 18 -2 12 3 16 20 15 13 -2 21 1 17 7 -3
6 3 10 13 10 11 0 25 7 32 15 8 10 21 13 33 9 16 -5 19 -3 14 11 -7 17 13 45
32 45 6 0 11 4 11 10 0 5 10 9 23 7 19 -2 22 2 19 32 -2 31 -1 33 23 27 20 -5
25 -3 25 13 0 10 7 22 16 25 24 9 54 7 54 -4 0 -5 -4 -10 -10 -10 -5 0 -10 -7
-10 -15 0 -8 -7 -15 -15 -15 -8 0 -15 -4 -15 -10 0 -5 7 -10 15 -10 8 0 15 5
15 10 0 15 52 1 67 -18 7 -9 16 -13 19 -9 9 9 -23 57 -58 86 -30 25 -39 57
-13 47 21 -8 45 3 45 20 0 8 4 14 9 14 5 0 17 3 27 7 14 5 16 3 11 -12 -9 -22
9 -45 34 -45 11 0 19 -6 19 -13 0 -8 11 -27 25 -43 28 -32 33 -64 10 -64 -8 0
-15 8 -15 18 0 11 -11 24 -25 30 -14 6 -25 18 -25 27 0 8 -4 15 -10 15 -5 0
-10 6 -10 14 0 13 -20 26 -42 26 -7 0 -6 -5 1 -14 6 -7 9 -21 5 -30 -3 -9 -1
-16 5 -16 6 0 11 5 11 10 0 22 19 8 29 -20 5 -17 17 -33 26 -36 8 -3 15 -17
15 -30 0 -15 6 -24 15 -24 8 0 15 -3 15 -6 0 -3 -7 -12 -15 -20 -13 -14 -15
-14 -15 1 0 25 -27 47 -50 40 -21 -7 -28 -35 -9 -35 11 0 39 -24 39 -34 0 -13
-24 -5 -40 14 -10 12 -34 24 -54 27 -31 5 -35 3 -30 -11 5 -12 0 -16 -18 -16
-13 0 -29 -5 -35 -11 -6 -6 -22 -17 -35 -23 -12 -7 -22 -20 -22 -29 1 -9 -4
-17 -12 -17 -8 0 -14 5 -14 10 0 15 -26 12 -40 -5 -7 -8 -22 -15 -34 -15 -11
0 -36 -10 -55 -23 -19 -12 -49 -31 -67 -42 -17 -11 -49 -33 -69 -50 -75 -59
-91 -71 -127 -95 -21 -14 -38 -28 -38 -32 0 -5 -7 -8 -15 -8 -21 0 -19 -17 3
-24 11 -3 8 -5 -8 -4 -50 1 -56 -2 -32 -16 l24 -13 -26 -16 c-14 -9 -30 -17
-36 -17 -5 0 -10 -4 -10 -10 0 -11 112 -13 184 -4 42 6 66 24 31 24 -8 0 -15
3 -15 6 0 10 28 34 40 34 8 0 10 10 8 25 -4 17 -1 25 8 25 8 0 14 -4 14 -10 0
-5 12 -10 28 -10 24 1 25 2 10 14 -11 8 -15 20 -11 34 4 16 1 22 -11 22 -9 0
-16 5 -16 10 0 6 16 10 35 10 28 0 35 4 35 20 0 13 7 20 19 20 30 0 51 11 51
27 0 8 7 21 15 29 13 13 20 13 50 3 19 -7 35 -17 35 -21 0 -4 5 -8 10 -8 15 0
12 26 -5 40 -16 13 -20 30 -7 30 4 0 20 -11 36 -25 38 -33 60 -33 54 0 -5 25
16 37 24 14 5 -16 48 -1 48 16 0 14 21 25 51 25 12 0 19 7 19 20 0 13 7 20 20
20 11 0 36 7 55 14 19 8 35 11 35 5 0 -5 9 -9 20 -9 11 0 20 5 20 10 0 6 -7
10 -16 10 -8 0 -12 5 -9 10 4 6 23 8 43 6 20 -3 29 -3 19 0 -9 3 -15 9 -12 14
3 5 13 7 23 4 14 -5 15 -4 2 5 -20 14 -7 24 43 31 40 5 42 7 39 38 -2 31 10
43 23 22 10 -16 45 -12 45 5 0 21 27 19 39 -4 12 -22 61 -34 79 -19 8 7 16 7
26 -1 13 -11 28 -9 71 9 37 16 179 28 202 17 15 -7 20 -14 14 -21 -13 -15 249
-20 360 -7 46 6 165 13 265 15 167 5 314 19 335 31 4 3 39 10 76 16 162 24
245 41 288 59 11 5 49 11 85 14 36 2 85 9 110 15 25 6 81 18 125 26 44 8 114
21 155 30 156 32 188 37 236 38 27 1 51 -2 53 -8 5 -14 -61 -45 -144 -67 -38
-10 -74 -23 -79 -28 -6 -6 -24 -10 -41 -10 -17 0 -35 -4 -41 -9 -5 -5 -29 -11
-54 -14 -38 -3 -164 -28 -340 -67 -19 -4 -64 -17 -100 -28 -36 -11 -85 -24
-110 -30 -134 -32 -186 -46 -194 -54 -6 -4 -24 -8 -40 -8 -17 0 -40 -7 -50
-15 -11 -8 -33 -15 -49 -15 -36 0 -67 -27 -43 -36 19 -7 49 3 42 14 -3 5 33 8
79 8 79 -1 85 -2 96 -26 7 -14 12 -28 11 -32 -3 -11 40 -10 56 1 11 7 11 9 -2
14 -9 4 -16 11 -16 17 0 17 25 11 40 -10 15 -21 80 -29 80 -10 0 6 -7 10 -15
10 -8 0 -15 5 -15 10 0 13 27 13 36 -1 3 -6 20 -19 38 -30 36 -22 39 -21 -84
-21 -36 0 -74 -2 -85 -5 l-20 -6 20 -7 c29 -10 207 -2 219 10 6 6 38 10 73 10
35 0 63 4 63 9 0 5 15 12 33 16 22 5 26 9 15 12 -35 9 -17 21 23 16 22 -3 50
-1 62 5 12 5 31 13 42 17 15 6 17 8 5 12 -8 3 -21 7 -29 9 -8 2 -11 7 -8 10 3
3 21 0 40 -7 31 -11 43 -9 113 14 44 15 116 38 161 53 46 14 85 30 88 35 4 5
13 9 22 9 9 0 26 11 39 25 13 14 26 25 29 25 8 0 110 46 147 66 14 8 35 14 46
14 12 0 24 4 27 10 12 20 45 10 55 -16 14 -35 13 -36 -11 -29 -11 4 -35 1 -52
-5 -45 -18 -277 -131 -307 -150 -22 -14 -61 -32 -135 -60 -11 -4 -42 -15 -70
-25 -27 -9 -59 -20 -70 -25 -11 -4 -40 -13 -65 -20 -25 -6 -60 -18 -78 -26
-18 -8 -39 -14 -47 -14 -8 0 -15 -4 -15 -10 0 -5 -8 -10 -19 -10 -10 0 -24 -7
-31 -15 -7 -8 -21 -15 -31 -15 -10 0 -21 -4 -24 -10 -3 -5 -17 -10 -31 -10
-13 0 -32 -4 -42 -9 -18 -10 -105 -31 -207 -51 -33 -6 -85 -18 -115 -25 -30
-8 -62 -14 -70 -13 -31 2 -93 -2 -89 -6 3 -3 51 -7 108 -11 112 -6 151 -12
151 -25 0 -5 -8 -11 -17 -13 -11 -3 -7 -5 10 -6 21 -1 27 4 27 19 0 28 18 25
32 -6 9 -19 17 -24 32 -19 12 3 45 8 75 11 30 2 72 9 95 15 22 6 54 11 69 10
18 0 27 4 24 12 -6 19 -45 20 -88 3 -52 -21 -62 -20 -54 4 4 13 2 20 -7 20 -8
0 -7 4 4 11 12 7 24 6 38 -1 28 -15 60 -3 60 21 0 14 7 19 25 19 15 0 25 6 25
14 0 9 15 15 42 18 45 4 172 -7 188 -17 19 -12 -3 -34 -38 -38 -21 -2 2 -4 50
-5 56 -1 88 2 90 9 2 6 35 13 73 16 67 4 154 17 315 48 41 8 94 14 117 15 23
0 48 3 57 6 23 9 20 34 -4 34 -11 0 -20 4 -20 10 0 11 133 11 140 -1 3 -5 17
-5 30 -2 22 6 23 7 4 14 -16 6 -16 8 -2 8 9 1 21 9 27 18 8 16 12 16 37 3 20
-11 23 -16 11 -18 -26 -5 -20 -22 8 -22 21 0 25 5 25 30 0 17 4 30 9 30 20 0
41 -13 41 -25 0 -14 76 -25 88 -13 13 13 122 22 122 10 0 -6 -17 -12 -37 -14
-24 -2 -37 -8 -36 -15 2 -9 -13 -13 -49 -13 -40 0 -49 -3 -40 -12 11 -11 88
-2 197 24 22 5 64 13 93 17 30 4 57 12 60 18 4 7 30 13 57 16 44 3 42 4 -17 5
-38 1 -68 6 -68 11 0 15 33 18 95 8 76 -11 153 -11 168 1 7 5 26 12 42 15 44
9 117 23 228 47 55 11 111 20 126 20 15 0 31 4 37 9 5 5 41 11 81 13 57 4 70
3 66 -8 -4 -10 3 -14 21 -14 23 0 25 3 17 19 -14 25 2 31 77 31 43 0 53 -3 42
-11 -11 -8 -12 -12 -2 -16 12 -5 17 -33 6 -33 -4 0 -15 10 -25 22 -21 23 -32
19 -34 -11 -1 -10 -16 -31 -33 -46 -31 -26 -33 -27 -58 -10 -22 14 -28 15 -35
4 -5 -8 -8 -18 -8 -24 0 -5 3 -4 6 3 8 21 32 14 26 -9 -5 -16 -11 -19 -29 -15
-80 20 -77 20 -69 -3 9 -30 -11 -27 -41 6 -21 23 -28 25 -44 15 -11 -7 -33
-12 -50 -12 -19 0 -33 -7 -40 -20 -8 -15 -17 -19 -31 -15 -15 5 -19 2 -19 -19
0 -14 5 -26 10 -26 6 0 10 -7 10 -15 0 -8 -4 -15 -10 -15 -5 0 -10 -11 -10
-25 0 -18 5 -25 20 -25 13 0 20 -7 20 -20 0 -11 7 -20 15 -20 8 0 15 -7 15
-15 0 -8 7 -15 15 -15 8 0 15 7 15 15 0 8 -7 15 -15 15 -8 0 -15 7 -15 15 0 9
-11 26 -25 39 -29 27 -31 36 -10 36 8 0 15 -4 15 -10 0 -5 9 -10 20 -10 18 0
24 -10 22 -31 -1 -4 10 -10 23 -13 14 -4 25 -11 25 -16 0 -6 7 -10 15 -10 8 0
15 5 15 10 0 6 -7 10 -15 10 -9 0 -15 9 -15 25 0 14 -5 25 -11 25 -11 0 -39
24 -39 34 0 14 31 4 42 -14 7 -11 23 -20 35 -20 14 0 23 -6 23 -15 0 -19 36
-55 55 -55 24 0 17 19 -10 26 -16 4 -25 13 -25 25 0 15 7 19 35 19 32 0 40 -8
36 -33 -2 -14 27 -37 48 -37 12 0 21 -4 21 -10 0 -5 5 -10 10 -10 6 0 10 9 10
20 0 11 7 20 15 20 8 0 15 -9 15 -20 0 -18 7 -20 54 -20 30 0 58 -4 61 -10 4
-6 -6 -10 -24 -10 -39 0 -115 -30 -104 -41 4 -4 26 -3 48 2 22 6 52 13 68 16
15 3 27 9 27 14 0 5 11 9 25 9 14 0 42 7 62 15 19 8 44 15 54 15 11 0 19 5 19
10 0 6 20 10 45 10 25 0 53 4 63 9 9 6 31 13 47 17 l30 8 -40 5 c-70 10 -12
21 75 14 57 -4 80 -3 80 6 0 7 19 11 49 11 28 0 53 5 56 10 4 6 -18 10 -59 10
-37 0 -66 -4 -66 -10 0 -5 -10 -10 -22 -10 -22 1 -22 1 -4 15 16 12 57 15 197
14 98 0 206 5 241 10 67 11 138 15 598 30 591 19 819 40 975 89 91 28 355 14
355 -19 0 -3 -31 -10 -70 -13 -38 -4 -72 -11 -74 -15 -3 -4 -36 -13 -73 -19
-37 -7 -95 -17 -128 -23 -59 -12 -106 -18 -275 -38 -47 -6 -94 -15 -105 -20
-23 -11 -188 -19 -575 -26 -151 -3 -316 -10 -367 -15 -50 -6 -120 -10 -156
-10 -65 0 -379 -33 -472 -50 -117 -21 -222 -46 -260 -61 -11 -4 -31 -10 -45
-13 -64 -12 -116 -28 -124 -37 -6 -5 -22 -9 -37 -9 -15 0 -31 -4 -34 -10 -3
-5 -16 -10 -29 -10 -12 0 -26 -3 -30 -8 -4 -4 -24 -12 -44 -18 l-37 -12 51 -1
c28 -1 69 6 90 15 29 12 55 14 111 9 40 -4 73 -11 73 -16 0 -12 227 -11 400 1
74 5 225 12 335 15 110 3 268 8 350 10 83 3 197 0 255 -5 173 -18 463 -28 490
-18 16 6 26 6 28 -1 5 -14 72 -14 72 -1 0 6 17 10 38 9 33 -1 34 -2 12 -9 -17
-6 -2 -8 53 -9 62 -1 77 2 77 14 0 10 10 15 33 15 18 0 38 5 44 11 7 7 19 8
30 4 16 -6 146 -7 777 -5 144 0 169 7 69 20 -40 5 3 8 137 9 107 1 211 2 230
2 75 2 225 -12 228 -21 2 -6 27 -10 55 -10 29 -1 79 -8 112 -17 50 -13 136
-17 499 -20 313 -3 436 -2 432 6 -4 6 0 11 8 11 9 0 16 -4 16 -10 0 -5 11 -10
25 -10 54 0 13 43 -42 45 -20 0 -38 6 -41 13 -2 7 -12 12 -23 12 -11 0 -19 7
-19 16 0 13 7 15 33 10 17 -3 52 -9 76 -11 25 -3 135 -22 245 -42 l201 -37
652 -3 c613 -4 651 -3 649 13 -5 34 -243 79 -483 91 -57 3 -103 9 -103 14 0 5
-17 9 -39 9 -43 0 -131 35 -131 52 0 7 18 9 58 4 31 -4 95 -12 142 -17 47 -6
132 -15 190 -20 243 -21 478 -57 505 -78 5 -5 26 -11 45 -14 56 -9 132 -27
165 -40 37 -14 1572 -21 1540 -7 -18 8 -17 9 8 9 15 1 27 -3 27 -9 0 -7 202
-10 586 -10 581 0 585 0 579 20 -8 26 5 26 33 0 27 -25 52 -26 52 -1 0 17 5
19 35 14 31 -5 35 -3 35 16 0 17 6 21 35 21 24 0 35 5 35 15 0 20 7 19 32 -5
12 -11 33 -20 47 -20 l26 0 -29 23 c-17 14 -26 29 -22 35 10 17 36 15 42 -3 9
-22 44 -19 44 4 0 11 -6 21 -12 24 -7 2 -9 8 -5 13 4 4 20 -4 35 -19 18 -18
23 -30 16 -35 -16 -10 -12 -72 4 -72 6 0 12 -7 12 -15 0 -10 10 -15 30 -15 35
0 39 14 10 32 -20 13 -28 48 -10 48 5 0 14 -9 20 -21 21 -38 50 -59 82 -59 25
0 29 3 20 12 -19 19 -14 30 9 23 13 -4 27 -1 39 10 13 12 27 15 49 10 20 -4
31 -3 31 4 0 6 11 11 25 11 14 0 25 -4 25 -10 0 -5 -7 -10 -15 -10 -8 0 -15
-4 -15 -10 0 -5 8 -6 18 -2 24 11 104 51 122 61 8 5 31 16 50 25 63 31 101 54
113 69 7 8 26 18 42 22 17 3 37 12 45 19 8 7 36 19 63 27 26 7 47 17 47 21 0
4 11 8 23 8 13 0 34 8 45 19 22 18 22 19 22 505 0 267 -1 486 -3 486 -1 0 -18
-5 -37 -10 -54 -16 -333 -71 -510 -100 -30 -6 -77 -15 -105 -20 -95 -21 -230
-41 -345 -51 -63 -5 -155 -14 -205 -18 -210 -21 -318 -31 -440 -41 -151 -13
-1058 -12 -1265 2 -192 12 -584 51 -695 68 -33 6 -107 17 -165 26 -58 9 -141
23 -185 30 -44 8 -123 21 -175 30 -52 8 -111 19 -130 24 -19 4 -60 11 -90 15
-185 22 -575 112 -1315 304 -733 190 -1115 279 -1455 336 -47 8 -105 19 -130
25 -220 48 -882 105 -1335 115 -314 7 -514 -2 -729 -34 -72 -11 -178 -25 -236
-31 -107 -11 -169 -22 -440 -85 -260 -59 -362 -85 -445 -111 -175 -56 -511
-140 -635 -158 -49 -7 -101 -21 -114 -30 -44 -28 -83 -13 -54 21 12 15 11 15
-9 5 -45 -25 -71 -8 -35 23 75 66 161 130 176 130 6 1 10 5 9 11 -1 5 12 17
28 27 18 10 27 12 23 4 -4 -6 5 -1 20 12 14 14 33 26 41 27 8 1 27 11 42 21
15 11 36 23 46 26 9 4 17 11 17 17 0 6 4 9 8 6 5 -3 19 2 33 12 13 9 53 31 89
49 36 17 76 38 90 46 53 31 183 90 315 142 39 15 84 34 100 41 43 18 156 54
172 54 7 0 13 5 13 10 0 6 13 10 29 10 15 0 41 4 57 9 16 5 56 17 89 26 33 10
64 21 69 26 5 4 14 5 21 2 8 -2 24 1 36 8 13 6 44 11 69 11 46 -2 124 15 85
18 -11 1 -28 3 -38 5 -9 2 -15 -1 -11 -6 3 -5 0 -9 -5 -9 -6 0 -11 7 -11 16 0
9 -5 12 -12 8 -9 -5 -8 -2 1 9 9 11 18 14 25 8 7 -6 16 -4 23 4 10 10 9 16 -3
26 -12 10 -13 9 -9 -3 5 -12 -5 -14 -56 -11 -54 3 -97 22 -83 36 3 2 -8 3 -25
2 -17 -1 -32 3 -35 11 -3 7 -24 14 -47 16 -57 4 -63 25 -8 26 22 1 44 3 47 6
3 3 -4 6 -16 6 -13 0 -22 6 -22 15 0 15 7 18 45 17 18 -1 18 0 2 5 -10 2 -16
11 -13 18 3 9 -4 15 -22 17 -15 2 -26 8 -25 14 2 12 -35 13 -54 1 -9 -6 -13
-2 -13 12 0 24 10 27 29 9 10 -11 12 -10 9 2 -2 12 8 15 52 15 30 0 58 4 62
10 4 5 35 8 70 7 212 -6 245 -5 328 13 14 2 26 9 28 15 2 6 8 8 13 4 5 -3 9 0
9 5 0 6 -1 12 -2 12 -2 1 -83 4 -181 8 -162 5 -177 5 -177 -11 0 -9 -4 -19 -9
-23 -6 -3 -8 6 -5 20 l4 25 -270 0 c-245 0 -282 -2 -412 -26 -79 -14 -170 -30
-203 -35 -129 -22 -416 -88 -575 -134 -63 -18 -209 -59 -325 -90 -252 -69
-359 -104 -570 -185 -88 -34 -189 -72 -225 -85 -36 -12 -126 -46 -200 -75 -74
-29 -162 -62 -195 -75 -178 -66 -264 -101 -790 -320 -148 -62 -290 -120 -315
-128 -71 -25 -160 -59 -389 -151 -118 -48 -315 -120 -439 -162 -124 -41 -243
-85 -266 -98 -23 -13 -72 -36 -111 -51 -38 -15 -84 -34 -102 -41 -17 -8 -38
-14 -46 -14 -9 0 -19 -5 -22 -10 -3 -6 -15 -10 -26 -10 -10 0 -27 -4 -37 -9
-9 -6 -44 -17 -77 -25 -128 -33 -154 -40 -264 -78 -63 -21 -116 -36 -118 -34
-7 6 69 61 127 92 30 16 76 44 101 61 26 18 50 33 54 33 3 0 28 17 53 38 26
20 53 42 62 49 99 78 222 182 252 214 21 21 40 39 43 39 3 0 23 15 43 34 50
46 140 118 165 133 11 6 31 23 44 37 13 15 41 37 61 50 20 13 69 50 107 82 39
33 81 66 95 75 21 14 215 181 230 199 3 3 20 16 38 29 18 12 30 27 26 32 -3 5
-1 8 4 7 6 -2 63 40 128 91 182 145 212 168 375 286 84 61 200 146 258 189 58
43 183 130 278 193 94 62 179 120 187 129 9 8 16 13 16 10 0 -3 38 18 84 47
103 64 117 71 291 162 361 186 468 237 630 300 66 25 154 59 195 75 41 16 134
48 205 71 72 23 139 45 150 49 20 8 185 47 310 74 315 68 457 92 655 111 358
34 395 39 370 46 -14 4 126 6 310 5 184 -1 340 -4 345 -8 6 -3 46 -9 90 -13
111 -9 258 -30 400 -57 66 -12 134 -22 152 -22 17 -1 29 -3 26 -6 -2 -3 19
-10 49 -16 188 -39 544 -157 860 -283 505 -202 906 -407 1388 -708 58 -36 150
-93 205 -127 56 -33 110 -67 120 -73 11 -7 45 -26 75 -43 30 -17 78 -44 105
-60 60 -36 97 -54 108 -52 4 1 7 -2 7 -7 0 -5 26 -22 58 -37 31 -16 59 -32 60
-37 2 -4 8 -5 13 -1 5 3 9 1 9 -5 0 -6 14 -17 30 -26 17 -9 30 -13 30 -10 0 4
7 -1 16 -10 9 -9 30 -19 46 -22 16 -3 32 -12 35 -18 2 -7 20 -16 39 -20 19 -3
37 -12 40 -20 3 -7 21 -16 40 -20 19 -3 32 -10 30 -14 -6 -9 37 -31 60 -31 8
0 12 -4 9 -10 -3 -5 15 -15 40 -21 25 -6 45 -15 45 -20 0 -5 6 -9 14 -9 8 0
27 -11 43 -24 19 -16 34 -21 47 -16 17 6 17 7 4 13 -9 3 -18 16 -20 29 -2 13
-7 22 -13 22 -5 -1 -23 9 -38 22 -16 13 -33 24 -38 24 -5 0 -27 11 -48 24 -21
14 -42 22 -45 19 -3 -4 -6 -1 -6 5 0 7 -7 12 -15 12 -8 0 -24 9 -35 20 -11 11
-26 20 -34 20 -8 0 -18 5 -21 10 -5 8 -11 7 -21 -1 -12 -10 -13 -9 -8 5 4 9 3
16 -2 14 -15 -4 -54 13 -54 23 0 5 -24 21 -52 35 -29 14 -61 33 -71 42 -10 9
-25 17 -34 18 -9 2 -20 10 -25 18 -5 9 -13 16 -19 16 -5 0 -15 4 -22 10 -47
37 -66 58 -59 64 4 4 2 6 -4 4 -13 -3 -54 39 -54 55 0 5 -13 7 -29 5 -17 -2
-30 -2 -29 1 3 35 -40 73 -72 64 -13 -4 -13 -3 0 6 14 10 13 12 -9 15 -5 0
-13 5 -18 10 -5 5 2 6 17 3 22 -5 23 -5 8 7 -18 13 -26 42 -9 32 5 -4 11 0 14
6 3 7 5 4 5 -7 1 -30 7 -53 17 -62 4 -4 6 -3 2 2 -3 6 1 19 9 30 8 10 14 13
14 7 0 -7 7 -12 16 -12 8 0 13 -4 10 -9 -7 -10 20 -9 30 2 4 4 12 3 18 -2 7
-6 12 0 13 20 1 16 -2 27 -7 24 -5 -3 -11 -1 -15 5 -4 6 -12 7 -18 3 -7 -4 -6
0 2 10 15 18 26 23 16 7 -10 -16 1 -11 16 7 10 11 10 14 2 9 -8 -4 -13 -2 -13
4 0 7 7 9 16 6 9 -3 21 -6 27 -6 7 0 6 -5 -3 -11 -12 -8 -9 -9 12 -5 15 3 30
1 33 -4 4 -6 10 -8 15 -5 5 3 12 0 16 -6 4 -7 3 -9 -4 -5 -6 3 -13 3 -16 -2
-2 -4 9 -9 25 -10 22 -2 28 1 23 10 -4 7 2 4 14 -6 12 -11 22 -15 22 -10 0 5
9 -2 19 -16 16 -20 22 -22 34 -12 11 9 17 10 22 2 5 -8 12 -5 22 7 8 10 12 13
9 6 -4 -6 5 -20 19 -31 14 -11 25 -25 25 -32 0 -7 14 -11 40 -9 22 2 45 -2 52
-9 9 -9 9 -12 -2 -12 -10 0 -11 -3 -3 -11 6 -6 9 -19 6 -28 -4 -9 -3 -13 1 -9
5 4 17 -2 29 -12 11 -11 24 -17 29 -14 4 3 8 0 8 -5 0 -6 6 -11 14 -11 7 0 19
-7 26 -15 7 -8 16 -12 21 -10 4 3 11 -1 16 -8 4 -8 23 -16 41 -19 29 -4 37 1
33 24 -3 20 10 5 23 -26 8 -19 24 -40 36 -46 15 -8 20 -8 16 -1 -6 10 6 15 27
12 26 -4 -10 25 -131 105 -204 137 -503 332 -620 405 -56 35 -127 80 -157 99
-30 19 -164 102 -297 184 -134 81 -254 156 -268 165 -14 10 -68 41 -120 71
-52 29 -120 67 -150 85 -30 18 -86 48 -125 67 -223 108 -521 263 -527 274 -4
6 -20 15 -35 19 -14 3 -38 15 -51 26 -14 10 -28 19 -33 19 -4 0 -19 10 -32 23
-14 12 -49 31 -78 41 -51 17 -142 56 -181 77 -10 5 -25 9 -33 9 -8 0 -15 5
-15 10 0 6 -10 10 -22 10 -13 0 -32 7 -42 15 -10 8 -23 12 -28 9 -5 -3 -14 -1
-21 4 -11 9 -73 31 -89 32 -4 1 -23 7 -42 15 -18 8 -36 11 -39 8 -4 -3 -12 -1
-19 4 -24 20 -329 97 -483 122 -87 15 -287 41 -310 41 -52 -1 -304 26 -311 33
-17 17 18 27 131 37 66 6 153 18 194 26 82 17 95 18 441 29 341 11 622 -13
975 -82 420 -82 965 -298 1348 -535 73 -45 134 -85 137 -88 8 -11 54 -34 63
-32 4 1 7 -2 7 -7 0 -5 60 -52 133 -104 72 -52 173 -128 223 -169 197 -158
265 -210 420 -326 215 -160 373 -272 384 -272 4 0 10 -3 12 -7 7 -17 163 -116
389 -248 216 -127 540 -276 793 -364 194 -68 665 -191 866 -225 47 -8 173 -31
280 -50 239 -42 529 -71 622 -61 38 3 68 2 68 -3 0 -16 127 -32 261 -32 91 0
155 -6 199 -17 54 -14 122 -16 400 -17 384 0 548 14 835 70 44 9 109 21 145
28 l65 12 3 282 c1 155 0 282 -2 282 -2 0 -71 -16 -153 -36 -184 -44 -275 -60
-428 -74 -66 -6 -154 -16 -195 -21 -126 -18 -697 -23 -850 -9 -241 23 -292 26
-296 18 -3 -5 -10 -8 -15 -8 -6 0 -7 5 -4 10 4 6 -26 10 -82 11 -48 0 -108 4
-133 8 -89 17 -236 40 -285 45 -303 32 -350 44 -780 187 -210 69 -436 172
-655 295 -36 21 -94 53 -130 72 -36 19 -95 52 -132 73 -36 22 -70 39 -74 39
-20 0 -118 76 -139 108 -25 38 -55 65 -190 174 -72 59 -112 105 -99 117 2 2
17 -5 32 -16 56 -41 328 -167 342 -158 5 3 16 -2 24 -11 9 -9 31 -17 49 -19
41 -3 67 -14 67 -27 0 -6 8 -7 17 -4 9 4 20 1 24 -6 4 -7 18 -13 31 -13 13 -1
30 -5 37 -9 7 -5 43 -17 80 -26 79 -22 326 -96 501 -150 192 -60 650 -172
1020 -250 196 -41 568 -95 885 -127 239 -25 296 -27 705 -27 404 -1 448 1 477
17 18 9 48 17 68 17 20 0 91 11 157 25 66 14 122 25 124 25 2 0 4 144 4 321 0
300 -1 320 -17 315 -181 -51 -861 -93 -1018 -62 -39 8 -118 17 -175 20 -58 3
-121 10 -140 16 -19 5 -51 10 -70 10 -20 0 -81 9 -135 20 -152 31 -196 39
-245 45 -24 4 -47 8 -51 11 -3 2 -21 5 -40 8 -19 2 -68 12 -109 21 -41 8 -100
20 -130 26 -136 25 -294 65 -516 130 -71 22 -137 39 -146 39 -43 0 -26 49 122
355 222 460 296 631 465 1070 104 271 155 432 288 910 84 303 181 783 232
1150 58 423 64 477 90 770 14 154 30 321 36 370 5 50 14 187 19 305 5 129 14
229 22 250 10 28 13 185 11 755 -3 1457 -10 1722 -45 1820 -6 17 -16 48 -22
70 -6 22 -21 58 -33 80 -11 22 -23 54 -27 70 -4 17 -20 57 -36 89 -17 32 -30
69 -30 82 0 13 -65 120 -155 251 -85 125 -254 377 -376 558 -245 362 -259 384
-403 583 -126 175 -329 467 -484 697 -178 264 -260 347 -392 398 -25 9 -62 32
-82 51 -41 38 -58 44 -248 91 -171 42 -188 44 -340 44 -85 0 -202 0 -260 2
-58 1 -118 2 -135 1 -16 0 -147 -3 -290 -6 -153 -4 -322 -2 -410 5 -186 13
-272 13 -855 0 -689 -15 -846 -20 -1255 -46 -33 -2 -118 -6 -189 -9 -71 -2
-133 -9 -137 -13 -5 -5 -28 -7 -51 -4 -65 9 -68 22 -68 267 0 241 -7 277 -71
373 -54 81 -142 151 -225 181 -65 23 -73 23 -295 16 -273 -7 -366 -19 -433
-53 -72 -37 -156 -125 -197 -208 -34 -68 -34 -72 -37 -220 -2 -82 1 -249 7
-370 8 -191 8 -221 -5 -228 -9 -5 -63 -9 -122 -10 l-107 -2 -5 410 c-7 451 -9
475 -73 604 -50 100 -160 203 -270 251 -84 37 -130 40 -482 30z m4795 -1955
c14 -3 77 -8 140 -11 63 -2 131 -6 150 -9 19 -3 82 -6 140 -7 58 0 123 -6 144
-14 22 -7 43 -11 48 -8 4 3 8 1 8 -4 0 -5 33 -12 74 -14 119 -8 122 -12 130
-165 21 -404 23 -469 17 -474 -3 -4 -121 -11 -261 -17 -140 -6 -271 -16 -290
-22 -19 -6 -114 -13 -210 -15 -346 -10 -426 -14 -495 -29 -39 -8 -149 -22
-245 -31 -96 -8 -229 -24 -295 -35 -136 -22 -231 -33 -460 -55 -274 -26 -587
-80 -817 -140 -73 -19 -205 -48 -293 -64 -316 -59 -957 -210 -1245 -294 -85
-25 -240 -69 -345 -97 -104 -28 -253 -69 -330 -91 -77 -22 -174 -49 -215 -60
-73 -21 -395 -118 -730 -221 -91 -27 -338 -107 -550 -177 -212 -70 -425 -140
-475 -155 -49 -16 -128 -42 -175 -58 -47 -16 -123 -42 -170 -58 -107 -36 -242
-85 -540 -195 -129 -48 -307 -114 -395 -147 -88 -33 -207 -77 -265 -98 -58
-21 -143 -53 -190 -70 -47 -17 -112 -40 -144 -51 -83 -28 -569 -217 -1106
-429 -128 -51 -422 -170 -755 -307 -60 -25 -238 -97 -395 -160 -157 -63 -355
-143 -440 -178 -137 -55 -317 -131 -405 -170 -224 -100 -475 -207 -620 -265
-220 -87 -732 -307 -990 -425 -104 -48 -262 -118 -350 -155 -88 -38 -221 -96
-295 -130 -134 -61 -504 -227 -715 -320 -60 -26 -162 -73 -225 -103 -108 -52
-456 -207 -465 -207 -3 0 -67 -29 -142 -64 -76 -35 -160 -74 -188 -86 -140
-63 -476 -221 -599 -282 -76 -37 -144 -68 -151 -68 -9 0 -16 39 -24 128 -7 70
-14 141 -16 157 -2 17 -13 131 -24 255 -11 124 -28 289 -37 367 -9 78 -14 148
-11 156 4 12 209 137 224 137 3 0 17 8 31 19 47 32 475 250 907 461 216 105
550 271 565 280 24 15 441 216 478 230 17 7 32 17 32 22 0 5 4 7 8 4 5 -3 49
15 98 39 49 25 92 45 96 45 13 0 303 144 306 152 2 4 12 8 22 8 10 0 22 5 25
10 3 6 12 10 20 10 7 0 62 23 122 51 59 28 128 59 153 70 25 11 80 38 122 60
43 21 85 39 94 39 9 0 33 8 53 18 72 37 127 61 164 72 22 7 51 18 65 26 15 8
32 14 38 14 5 0 15 5 22 12 6 6 17 13 24 14 7 1 33 11 58 22 25 11 95 41 155
67 100 44 250 115 300 142 11 7 38 18 60 26 22 8 65 26 95 40 30 13 70 30 88
37 17 7 32 16 32 21 0 5 6 9 13 9 11 0 158 60 242 100 22 10 81 35 130 55 50
20 113 47 140 59 28 13 73 32 100 43 28 12 78 33 111 47 34 14 64 26 68 26 3
0 29 11 58 25 28 14 55 25 60 25 4 0 55 23 112 50 57 28 108 50 113 50 5 0 20
8 33 17 14 10 30 18 35 19 6 1 31 11 55 23 24 11 47 21 52 21 5 0 27 8 51 19
82 36 163 70 242 101 44 17 94 37 110 45 17 7 56 23 88 35 31 12 60 26 63 31
3 5 11 9 19 9 7 0 47 16 88 35 41 19 77 35 81 35 5 0 49 19 156 68 19 8 43 17
53 19 10 2 35 12 57 23 22 11 44 20 49 20 6 0 39 14 73 30 34 17 66 30 71 30
5 0 37 13 71 29 33 16 95 41 136 56 41 15 86 34 100 41 14 7 45 20 70 28 48
15 135 49 185 71 17 7 56 23 88 34 138 51 172 64 175 72 2 5 11 9 20 9 15 0
46 10 237 81 33 12 61 26 63 30 2 5 12 9 22 9 11 0 34 6 52 14 18 8 74 28 123
44 143 48 239 84 250 93 5 5 17 9 27 9 11 0 38 9 60 20 23 11 46 20 51 20 10
0 193 63 317 110 74 28 106 39 115 40 10 2 91 31 110 40 33 15 566 190 581
190 8 0 14 5 14 10 0 6 10 10 22 10 21 0 55 9 283 80 66 20 156 47 200 60 77
21 265 76 295 86 8 3 15 5 15 4 0 -2 112 33 120 38 6 4 19 8 30 9 33 4 109 26
120 33 6 4 26 10 45 13 19 3 49 11 65 18 17 6 37 13 46 14 18 2 154 38 244 65
33 10 137 37 230 60 94 23 197 48 230 56 104 27 179 44 210 49 17 2 75 15 130
29 231 55 260 61 349 70 38 4 77 11 87 17 10 5 45 12 76 15 32 3 99 12 148 20
50 9 122 19 160 24 39 5 77 11 85 14 8 3 40 8 70 11 115 12 428 48 490 55 36
5 142 13 235 19 286 19 437 31 495 40 64 10 1873 7 1910 -4z m1995 -965 c15
-22 32 -40 37 -40 5 0 7 -4 4 -9 -3 -4 20 -48 51 -97 31 -49 76 -123 100 -164
25 -41 106 -172 180 -290 155 -249 137 -217 209 -345 100 -175 150 -260 187
-316 l35 -54 7 -365 c5 -303 4 -372 -8 -405 -14 -39 -6 -85 14 -85 5 0 7 -287
6 -637 -1 -351 2 -655 6 -676 20 -94 -35 -9 -321 503 -63 113 -151 273 -195
355 -141 265 -160 300 -167 310 -4 6 -31 56 -59 112 l-52 102 0 301 c0 166 -4
312 -9 325 -6 16 -6 35 1 53 13 31 16 280 4 331 -4 22 -4 31 3 27 16 -9 23 39
13 86 -5 24 -12 131 -16 238 -4 107 -11 209 -15 225 -5 17 -14 75 -20 130 -6
55 -15 138 -21 185 -19 170 -22 240 -12 240 6 0 23 -18 38 -40z m-1045 -458
c-13 -11 -13 -11 3 -6 13 5 17 1 16 -17 0 -13 -3 -18 -6 -11 -7 18 -33 15 -34
-5 -1 -25 -17 25 -18 57 -1 20 1 22 9 10 8 -13 10 -12 10 3 0 16 1 16 18 0 16
-16 16 -19 2 -31z m-97 9 c4 -1 7 -240 7 -532 0 -351 3 -528 10 -524 16 10 11
-4 -9 -24 -21 -21 -104 -34 -354 -56 -92 -8 -198 -17 -235 -20 -37 -3 -78 -8
-92 -10 -14 -3 -54 -7 -90 -10 -84 -8 -204 -28 -355 -61 -66 -14 -153 -32
-194 -40 -41 -8 -77 -17 -80 -20 -11 -10 -2 -156 14 -234 9 -45 29 -181 44
-303 22 -176 31 -221 42 -218 8 2 43 10 79 18 36 8 74 18 85 23 11 5 42 12 68
15 27 4 59 8 70 11 12 2 60 9 107 15 47 7 90 15 95 19 6 4 20 6 33 4 13 -2 21
-1 19 3 -3 5 9 9 26 9 30 2 78 7 187 19 25 3 77 8 115 11 39 3 86 9 105 14 19
4 66 8 104 9 37 1 79 6 91 11 30 11 51 7 77 -14 18 -16 20 -25 14 -80 -4 -33
-15 -200 -26 -371 -19 -310 -27 -401 -55 -635 -25 -216 -28 -230 -35 -235 -3
-2 -67 -11 -141 -20 -74 -9 -213 -29 -309 -45 -96 -15 -222 -34 -280 -40 -119
-13 -545 -81 -690 -110 -231 -46 -280 -58 -665 -165 -66 -18 -205 -52 -310
-75 -104 -23 -235 -58 -290 -77 -98 -33 -531 -169 -870 -273 -93 -29 -262 -83
-375 -120 -113 -37 -279 -91 -370 -119 -91 -29 -176 -56 -190 -61 -14 -5 -59
-18 -100 -30 -65 -18 -770 -249 -1900 -623 -173 -57 -373 -125 -445 -152 -137
-50 -239 -83 -525 -171 -96 -29 -245 -79 -330 -110 -367 -133 -981 -342 -1300
-443 -183 -58 -757 -246 -845 -277 -22 -8 -132 -41 -245 -75 -113 -33 -232
-69 -265 -79 -129 -40 -278 -84 -455 -135 -102 -29 -273 -80 -380 -113 -107
-33 -249 -75 -315 -93 -194 -52 -199 -54 -450 -132 -132 -41 -310 -96 -395
-122 -178 -55 -477 -158 -630 -217 -58 -23 -251 -90 -430 -149 -179 -59 -424
-141 -545 -184 -121 -42 -231 -80 -245 -85 -93 -31 -419 -146 -535 -190 -77
-28 -214 -79 -305 -112 -91 -34 -271 -103 -401 -154 -129 -51 -247 -96 -261
-99 -27 -7 -14 -23 -218 285 -64 97 -131 223 -216 408 -26 56 -51 102 -56 102
-4 0 -8 9 -8 19 0 13 14 26 43 39 88 41 205 92 297 127 52 21 102 44 111 51 8
8 23 14 32 14 21 0 155 54 170 69 6 6 19 11 30 11 10 0 42 11 70 24 94 42 132
58 151 62 10 2 34 12 53 24 19 11 40 20 46 20 7 0 28 8 47 18 19 11 48 22 65
26 16 4 36 13 43 19 8 6 24 13 35 14 12 2 40 12 62 22 22 10 67 28 100 41 66
25 94 37 170 71 28 13 55 24 60 25 6 1 35 12 65 24 30 12 66 27 80 32 14 6 37
17 52 24 14 8 33 14 41 14 9 0 28 6 44 14 15 8 60 25 98 37 39 12 78 29 89 38
10 9 19 15 20 13 0 -2 14 1 29 7 16 6 32 11 37 11 5 0 24 6 42 14 45 20 69 28
93 33 11 2 24 8 29 13 6 6 18 10 28 10 10 0 26 4 36 9 71 35 96 46 96 43 1 -2
25 8 55 23 29 15 60 29 70 30 9 2 16 4 16 5 0 1 10 3 23 6 12 2 45 15 72 29
28 14 52 25 55 25 6 1 21 6 60 21 17 7 33 12 38 11 4 -1 7 3 7 10 0 6 3 8 7 5
3 -4 16 -1 28 7 12 8 30 16 41 18 10 2 25 9 33 16 7 7 20 11 27 8 8 -3 14 -1
14 4 0 6 12 10 26 10 15 0 41 9 58 19 17 10 47 22 66 26 19 4 46 14 60 21 22
12 81 36 87 35 1 0 15 6 30 14 14 8 30 12 35 9 4 -3 8 0 8 6 0 6 4 8 10 5 5
-3 25 1 42 11 60 31 68 34 88 34 11 0 20 5 20 10 0 6 8 10 18 10 10 0 34 9 55
19 20 10 49 22 64 26 15 3 52 17 81 31 29 13 61 24 72 24 11 0 20 5 20 10 0 6
9 10 21 10 11 0 41 9 67 20 26 10 54 21 62 22 8 2 18 7 22 13 4 5 13 10 20 11
28 2 79 17 84 25 3 5 14 9 25 9 10 0 19 5 19 10 0 6 9 10 20 10 12 0 34 7 50
15 16 8 33 14 37 14 4 -1 15 0 23 3 8 3 42 16 75 28 33 12 71 24 85 26 13 3
39 14 57 25 18 12 33 18 33 15 0 -4 11 1 25 10 13 8 29 13 35 9 5 -3 10 -1 10
4 0 6 14 11 30 11 17 0 30 5 30 10 0 6 14 10 30 10 17 0 30 4 30 9 0 5 12 11
28 14 15 3 41 11 57 18 17 7 41 14 54 16 13 2 38 11 55 20 17 10 39 18 48 20
10 2 38 12 62 24 25 11 51 22 59 23 8 1 22 7 30 14 8 7 21 10 30 6 8 -3 18 -1
22 5 3 6 17 11 31 11 13 0 24 5 24 10 0 6 11 10 25 10 14 0 25 5 25 10 0 6 15
10 34 10 22 0 36 6 40 16 4 11 13 14 30 10 14 -3 28 -2 31 4 3 5 17 10 31 10
13 0 33 4 44 10 11 6 29 15 40 20 11 6 31 10 44 10 13 0 27 7 30 16 4 10 13
13 25 9 11 -3 22 -1 26 5 3 5 17 10 31 10 13 0 24 5 24 10 0 6 11 10 25 10 14
0 25 5 25 10 0 6 12 10 28 10 15 0 38 7 50 16 12 8 22 12 22 8 0 -5 5 -3 12 4
7 7 23 12 35 12 13 0 43 9 65 20 23 11 51 20 62 20 12 0 36 9 54 20 18 11 42
20 53 20 11 0 36 8 57 18 20 11 58 25 85 32 26 7 47 17 47 21 0 5 7 9 16 9 8
0 36 9 61 21 25 11 54 21 64 22 10 1 19 5 19 10 0 4 4 5 10 2 5 -3 20 0 32 8
13 8 44 20 71 27 26 7 50 17 53 21 3 5 16 9 28 9 13 0 29 7 36 15 7 8 18 15
24 15 6 0 4 -5 -4 -10 -8 -5 -10 -10 -4 -10 5 0 19 7 30 15 10 8 27 15 37 15
9 0 26 5 37 10 11 6 29 15 40 20 11 6 29 10 41 10 11 0 27 7 35 15 8 8 21 12
29 9 8 -4 15 -1 15 5 0 6 10 11 23 11 34 1 157 46 149 55 -4 5 -1 5 5 1 7 -4
23 -1 35 6 13 6 34 14 48 16 14 1 43 12 66 23 22 10 50 19 62 19 12 0 22 5 22
11 0 5 4 7 10 4 5 -3 20 1 33 10 13 8 35 16 50 17 15 1 27 7 27 12 0 5 3 7 6
3 4 -3 19 0 35 8 16 9 39 16 53 17 13 1 23 5 20 9 -5 9 44 21 56 14 5 -3 11
-1 15 5 3 5 16 10 28 10 12 0 38 9 58 19 20 11 49 21 65 24 16 2 47 14 68 25
22 12 43 19 47 16 4 -2 10 0 14 6 3 5 17 10 30 10 13 0 27 5 30 10 3 6 17 10
31 10 14 0 44 9 66 20 23 11 48 20 55 20 7 0 22 5 33 10 11 6 29 15 40 20 11
6 27 10 35 10 9 0 35 9 57 20 23 11 48 20 55 20 8 0 31 9 53 20 22 11 49 20
61 20 13 0 43 9 68 21 69 31 82 37 126 50 22 6 48 15 57 20 10 5 27 9 38 9 11
0 20 4 20 8 0 5 25 15 55 22 31 7 58 17 61 22 3 4 14 8 25 8 10 0 38 9 62 19
23 11 85 34 137 52 52 18 97 36 100 39 3 3 31 12 63 20 31 7 57 17 57 22 0 5
6 8 13 6 19 -4 107 23 107 33 0 5 6 9 13 9 14 0 260 79 307 98 14 6 71 25 127
42 56 17 110 38 120 45 10 8 28 15 39 15 12 0 39 8 60 17 22 9 44 18 49 19 37
8 322 107 329 115 6 5 20 9 32 9 13 0 26 5 29 10 3 6 17 10 31 10 13 0 24 5
24 10 0 6 11 10 25 10 14 0 34 5 45 10 11 6 29 15 40 20 11 6 29 10 39 10 11
0 33 5 48 11 52 21 68 27 113 40 25 7 49 16 55 21 5 4 22 8 37 8 15 0 28 5 28
10 0 6 11 10 23 10 13 0 27 3 31 7 4 4 19 9 33 11 14 2 44 12 67 23 22 10 50
19 62 19 12 0 25 7 28 16 3 8 14 14 23 13 36 -4 209 46 272 79 25 13 51 20 62
17 28 -9 25 27 -10 143 -16 54 -44 147 -62 207 -17 61 -35 115 -39 120 -10 12
-70 217 -70 236 0 29 -54 119 -70 119 -10 0 -62 -16 -116 -36 -55 -20 -169
-60 -254 -89 -85 -30 -195 -68 -245 -86 -49 -17 -180 -62 -290 -100 -110 -37
-258 -89 -330 -115 -120 -43 -636 -221 -765 -264 -30 -10 -161 -55 -290 -100
-346 -121 -717 -249 -780 -270 -59 -19 -283 -99 -420 -150 -89 -33 -244 -87
-420 -147 -182 -61 -648 -231 -830 -303 -96 -37 -303 -114 -460 -170 -157 -56
-343 -124 -415 -150 -71 -27 -175 -65 -230 -85 -55 -19 -163 -60 -240 -90
-269 -104 -411 -158 -550 -207 -223 -79 -654 -236 -1285 -468 -168 -61 -366
-133 -440 -160 -74 -26 -166 -60 -205 -75 -264 -102 -412 -156 -695 -253 -63
-22 -144 -51 -180 -65 -36 -14 -137 -53 -225 -87 -88 -33 -227 -87 -310 -120
-82 -32 -186 -72 -230 -88 -44 -17 -129 -52 -190 -77 -60 -26 -155 -64 -210
-85 -314 -120 -486 -189 -710 -285 -284 -122 -370 -155 -395 -155 -14 0 -22
15 -34 68 -8 37 -29 112 -46 167 -16 55 -43 170 -59 255 -17 85 -34 175 -40
199 -5 25 -8 48 -5 52 2 4 -1 19 -7 33 -10 22 -8 28 16 50 15 14 35 26 43 26
13 0 32 8 134 61 20 10 43 19 49 19 7 0 33 9 58 21 106 47 128 57 172 78 25
11 51 21 56 21 6 0 16 7 23 15 7 9 15 13 18 11 2 -3 11 2 19 10 8 8 18 12 23
9 5 -3 11 -1 15 5 3 5 14 10 24 10 10 0 30 9 45 21 14 11 26 17 26 13 0 -4 8
0 18 8 9 9 34 21 54 26 21 6 45 17 54 26 8 9 26 16 38 16 13 0 29 7 36 15 7 8
23 15 35 15 13 0 25 5 27 11 2 5 10 11 18 13 8 2 28 8 43 14 16 7 33 12 38 12
5 0 9 4 9 9 0 11 56 32 64 24 3 -4 6 0 6 7 0 7 3 10 6 7 4 -4 19 -1 33 7 85
42 126 61 129 58 3 -2 8 1 12 7 3 6 17 14 30 16 29 6 93 35 100 46 3 4 18 10
34 13 15 3 39 12 52 21 13 8 24 13 24 11 0 -2 39 15 86 40 47 24 92 44 99 44
7 0 18 7 25 15 6 8 15 14 18 13 4 0 10 1 15 2 4 1 10 4 15 5 38 11 72 29 72
37 0 5 4 7 9 4 7 -5 47 11 156 65 22 10 43 19 46 19 4 0 26 9 50 19 24 11 47
20 52 20 4 0 24 9 45 20 92 48 142 71 142 65 0 -4 10 1 22 12 12 10 18 13 14
7 -5 -9 -2 -11 8 -7 9 3 16 10 16 15 0 5 3 8 8 8 22 -4 43 3 75 25 19 13 38
22 41 19 3 -3 20 4 39 16 19 11 41 21 49 21 9 0 21 7 28 15 7 8 16 12 21 9 5
-3 19 1 31 8 13 7 25 13 28 13 22 4 50 18 50 26 0 5 10 9 23 9 12 0 36 9 52
20 17 11 37 20 45 20 9 0 22 6 28 12 7 7 18 13 25 14 23 1 77 26 77 35 0 4 7
5 17 2 11 -4 14 -3 9 5 -7 12 11 17 43 13 7 -2 10 2 6 8 -3 7 0 8 9 5 9 -3 16
-1 16 4 0 6 16 14 35 18 19 3 39 12 45 19 6 8 18 11 26 8 8 -3 14 0 14 6 0 6
3 10 8 9 11 -2 45 13 63 29 9 8 26 15 38 16 11 1 21 5 21 9 0 4 10 12 21 19
17 9 20 8 13 -3 -4 -7 2 -5 14 6 12 10 28 16 36 13 8 -3 16 -1 18 4 2 6 15 12
28 14 40 5 88 22 112 39 12 9 33 16 45 16 13 0 23 5 23 10 0 6 11 10 25 10 14
0 25 5 25 10 0 6 10 10 21 10 12 0 36 9 53 19 26 17 57 26 99 30 5 1 6 5 3 10
-4 5 2 7 13 4 10 -3 22 0 25 6 4 6 18 11 32 11 13 0 24 5 24 10 0 6 9 10 19
10 11 0 23 5 26 10 3 6 15 10 26 10 11 0 37 9 57 19 20 11 51 25 67 31 17 7
42 19 56 26 14 7 29 11 32 8 3 -4 21 3 40 15 19 11 41 21 49 21 8 0 20 6 26
13 7 6 17 13 22 13 6 1 11 2 13 3 1 2 12 4 25 7 12 2 46 16 75 30 51 26 83 40
142 64 17 7 38 16 47 21 10 5 26 9 35 9 10 0 33 9 51 20 18 11 40 20 49 20 9
0 35 11 58 25 23 13 45 22 48 19 3 -4 21 3 39 14 18 10 47 23 63 26 17 4 44
13 60 21 17 7 57 23 90 35 135 49 171 64 188 78 9 8 17 11 17 7 0 -5 5 -4 12
3 7 7 21 12 33 12 22 0 139 40 176 61 13 7 33 14 43 16 11 2 27 10 36 18 9 8
19 13 21 10 5 -4 89 25 127 44 9 5 35 14 57 21 22 7 46 17 54 23 7 6 20 12 28
13 8 1 29 9 46 17 18 8 59 25 92 37 33 13 75 32 93 42 18 10 38 18 46 18 12 0
110 37 171 65 17 7 49 19 73 26 23 7 42 16 42 21 0 4 8 8 17 8 10 0 41 9 70
20 29 12 79 30 110 42 32 11 66 24 75 29 10 5 25 9 33 9 8 0 15 5 15 10 0 6 9
10 21 10 11 0 30 5 42 12 12 7 27 12 32 13 26 2 95 27 100 35 3 6 15 10 25 10
25 0 150 49 171 67 9 7 18 10 22 7 4 -4 18 1 32 10 14 9 25 14 25 11 0 -3 18
4 40 15 21 11 46 20 53 20 8 0 32 8 53 17 22 9 45 18 53 19 22 4 124 44 161
63 19 10 52 21 73 25 21 4 35 11 32 16 -3 6 0 7 8 4 8 -3 18 -1 22 5 3 6 17
11 30 11 13 0 27 5 30 10 3 6 17 10 31 10 13 0 24 5 24 10 0 6 13 10 28 10 15
0 32 4 38 8 5 5 29 15 54 22 25 7 61 21 80 31 19 9 54 22 78 29 23 7 42 17 42
22 0 4 10 8 23 8 12 0 33 7 46 17 13 9 40 19 60 23 47 10 135 43 139 53 2 4
10 7 18 7 8 0 22 4 32 9 9 5 109 39 222 77 286 94 311 102 345 118 17 8 76 29
133 47 56 18 102 36 102 41 0 4 6 8 13 8 19 0 288 89 301 99 6 5 27 12 46 16
19 4 55 16 80 27 71 32 82 35 135 49 28 6 68 20 89 31 22 10 46 18 53 18 7 0
21 4 31 9 25 13 60 26 122 46 30 10 60 22 66 26 6 5 14 6 17 2 4 -3 7 -1 7 6
0 7 4 10 8 7 10 -6 152 40 166 54 5 5 20 10 31 10 12 0 25 3 29 8 4 4 11 7 14
7 17 0 101 28 137 46 22 10 50 19 62 19 12 0 25 5 28 10 3 6 15 10 26 10 10 0
19 5 19 10 0 6 9 10 20 10 28 0 100 23 100 32 0 5 11 8 25 8 14 0 34 5 45 10
11 6 29 15 40 20 11 6 28 10 38 10 9 0 27 7 39 15 12 9 26 14 30 13 13 -3 92
22 97 31 3 5 24 11 46 15 22 3 40 10 40 14 0 4 8 8 18 9 28 2 238 67 297 92
11 5 67 24 125 41 58 18 110 36 115 40 6 4 35 13 65 21 30 7 57 16 60 20 3 3
19 9 35 12 17 3 117 35 223 71 106 36 199 66 207 66 8 0 15 4 15 9 0 4 19 11
43 13 23 3 58 12 77 20 19 8 64 23 100 32 82 22 105 28 210 60 173 51 498 134
570 146 30 4 89 18 130 30 41 12 100 26 130 30 30 4 75 13 100 20 75 19 229
49 290 55 25 3 52 8 60 12 25 10 41 13 120 23 41 6 109 17 150 25 41 9 102 20
135 26 33 6 100 19 149 31 59 13 104 18 133 13 29 -4 43 -3 43 5 0 6 4 9 9 6
5 -3 27 1 49 8 22 8 89 17 149 21 161 9 226 16 248 28 10 5 62 12 115 15 52 2
107 11 122 18 19 10 90 15 255 18 148 3 251 10 293 19 42 9 130 15 250 16 101
1 187 4 189 7 3 2 21 2 40 0 20 -3 39 -5 44 -5z m78 -85 c-10 -12 -8 -19 7
-34 13 -13 16 -25 11 -40 -5 -12 -5 -23 -1 -26 4 -2 9 -40 10 -83 1 -43 4 -90
6 -105 2 -15 -1 -25 -5 -22 -5 3 -9 -2 -9 -11 0 -9 4 -14 9 -10 13 7 9 -58 -4
-67 -7 -5 -6 -8 0 -8 15 0 12 -54 -3 -73 -11 -12 -10 -18 1 -29 12 -11 13 -17
2 -38 -7 -14 -10 -34 -8 -45 4 -20 5 -95 1 -147 -1 -15 -6 -24 -10 -22 -8 5
-12 -10 -9 -34 1 -8 -4 -21 -11 -30 -10 -12 -10 -14 0 -8 6 4 12 2 12 -3 0 -6
-5 -11 -11 -11 -8 0 -8 -4 0 -14 8 -9 10 -30 6 -58 -8 -50 -22 -70 -30 -42 -4
10 -11 27 -16 37 -5 10 -9 56 -8 102 1 65 5 85 15 85 8 0 14 5 14 11 0 5 -4 8
-9 5 -16 -10 -20 55 -20 334 0 194 3 276 11 281 6 4 13 23 14 43 4 41 20 76
36 76 7 0 7 -5 -1 -14z m-1376 -1596 c-3 -5 -2 -10 4 -10 5 0 13 -9 16 -21 4
-12 12 -18 21 -15 7 3 16 1 19 -5 4 -5 10 -7 15 -4 16 10 3 -28 -13 -40 -9 -7
-14 -15 -10 -18 3 -4 1 -7 -5 -7 -7 0 -12 -7 -12 -15 0 -9 -9 -15 -24 -15 -21
0 -24 5 -29 62 -5 55 3 98 19 98 3 0 2 -4 -1 -10z m1285 -1000 c0 -5 -2 -10
-4 -10 -3 0 -8 5 -11 10 -3 6 -1 10 4 10 6 0 11 -4 11 -10z m1139 -82 c17 -23
31 -48 31 -55 0 -7 7 -13 16 -13 10 0 14 -6 10 -15 -3 -8 0 -20 7 -27 7 -8 13
-20 15 -28 8 -40 340 -593 482 -805 26 -38 63 -95 82 -125 20 -30 44 -64 55
-75 12 -13 19 -33 18 -50 -3 -53 -16 -149 -26 -185 -5 -20 -13 -92 -19 -160
-18 -202 -27 -285 -53 -475 -14 -99 -28 -211 -32 -250 -8 -81 -13 -105 -24
-105 -11 0 -66 83 -171 260 -51 85 -179 286 -285 445 -106 160 -200 304 -209
322 -9 18 -16 51 -16 75 0 43 21 239 40 378 6 41 12 165 15 275 6 254 15 638
15 648 0 18 21 3 49 -35z m-1389 -1251 c0 -12 -5 -38 -10 -57 -6 -19 -17 -93
-26 -165 -33 -270 -70 -518 -88 -597 -17 -71 -58 -257 -87 -398 -11 -52 -26
-100 -32 -107 -7 -6 -57 -23 -112 -38 -292 -78 -471 -132 -1015 -305 -440
-140 -988 -342 -1345 -495 -99 -43 -252 -107 -340 -142 -848 -345 -817 -332
-1135 -475 -305 -137 -358 -158 -411 -158 -22 0 -153 22 -292 49 -607 119
-1276 208 -1747 231 -113 6 -302 17 -420 25 -118 9 -280 15 -360 15 -144 0
-191 9 -160 30 8 6 33 15 55 21 41 11 193 75 457 192 81 36 229 96 330 132
101 37 239 90 308 120 69 29 132 55 140 59 8 3 22 10 30 16 8 5 47 21 85 36
39 15 88 34 110 44 22 9 56 23 75 30 19 7 39 17 45 22 5 4 16 8 25 8 9 0 32 8
52 18 20 11 57 25 82 32 25 7 46 17 46 21 0 5 8 9 18 9 9 0 33 8 52 18 19 10
56 24 83 32 26 7 50 17 53 21 3 5 13 9 23 9 10 0 33 7 51 16 18 9 46 20 64 24
48 12 131 44 134 53 2 4 8 4 13 1 6 -3 20 1 33 9 12 9 36 17 53 20 16 3 44 12
61 21 17 9 40 16 51 16 11 0 23 5 26 10 3 6 15 10 26 10 10 0 19 5 19 10 0 6
11 10 24 10 25 0 129 40 134 52 2 4 9 5 17 2 7 -3 16 -1 19 5 4 6 26 15 49 22
23 6 56 17 72 24 17 7 66 26 110 41 44 15 89 33 100 41 11 7 30 13 43 13 12 0
39 7 60 16 20 10 48 19 61 21 13 2 46 15 72 29 27 13 49 21 49 17 0 -4 5 -2
12 5 7 7 22 12 33 12 12 0 25 3 29 8 4 4 11 7 14 7 23 1 102 29 102 36 0 5 8
9 19 9 10 0 40 8 67 19 27 10 81 28 119 40 39 12 88 30 110 41 22 10 52 21 67
24 15 4 33 13 42 21 8 8 28 15 45 15 16 0 33 5 36 10 3 6 17 10 30 10 13 0 26
4 29 9 3 5 18 11 33 14 30 5 278 93 297 104 6 4 20 9 31 11 22 3 153 47 200
67 17 6 95 34 175 60 80 26 156 52 170 58 14 5 34 12 45 14 11 2 38 10 60 19
22 9 60 22 85 31 25 8 52 17 60 20 8 3 26 8 39 10 13 2 42 13 65 24 22 10 45
19 52 19 17 0 195 58 216 70 10 5 26 10 37 10 10 0 36 8 57 17 22 9 48 18 59
20 29 5 208 64 220 73 6 4 22 10 38 14 15 3 27 11 27 17 0 6 5 7 10 4 6 -4 19
-4 28 0 9 4 30 9 45 11 15 2 40 10 55 18 15 8 58 22 97 31 38 10 77 21 85 26
8 4 47 15 85 24 103 24 172 41 240 60 33 9 80 21 104 26 24 5 57 16 74 24 17
8 39 15 51 15 23 0 172 34 266 60 36 10 94 21 130 24 36 4 81 10 100 15 63 16
80 13 80 -12z m4 -269 c2 -15 1 -40 -4 -55 l-8 -28 -3 25 c-5 52 -5 75 -1 83
6 12 10 5 16 -25z m1109 -760 c19 -29 71 -116 117 -193 107 -180 125 -206 135
-197 5 4 5 1 1 -5 -7 -13 229 -369 330 -498 54 -69 55 -71 49 -120 -3 -27 -10
-52 -14 -55 -21 -15 -55 -91 -100 -227 -28 -83 -51 -158 -51 -165 0 -8 -25
-95 -56 -194 -59 -189 -117 -329 -133 -320 -5 3 -28 39 -50 79 -23 39 -65 109
-94 155 -29 45 -85 135 -126 200 -93 146 -250 405 -276 454 l-19 37 23 78 c26
84 50 193 136 620 30 150 55 293 55 318 0 28 6 52 17 65 10 11 19 20 20 20 2
0 18 -24 36 -52z m-1611 -1233 c-2 -14 -8 -25 -13 -25 -11 0 -85 -151 -180
-370 -86 -198 -275 -588 -295 -611 -14 -16 -20 -15 -82 3 -37 11 -117 40 -179
64 -62 24 -205 69 -318 99 -114 31 -248 69 -298 85 -163 51 -285 80 -390 91
-127 14 -145 22 -95 43 21 9 43 16 51 16 21 0 143 44 347 125 466 185 644 248
1170 415 107 34 213 68 235 75 54 18 53 18 47 -10z m1157 -927 c55 -92 137
-222 183 -288 135 -196 125 -159 83 -302 -69 -232 -78 -258 -90 -258 -15 0
-106 37 -280 115 -71 32 -173 75 -225 95 -61 24 -96 43 -98 54 -2 9 34 99 81
199 170 365 205 450 213 514 5 43 13 58 25 46 4 -4 53 -83 108 -175z m-11624
-4078 c-3 -5 -10 -10 -16 -10 -5 0 -9 5 -9 10 0 6 7 10 16 10 8 0 12 -4 9 -10z
m3437 -74 c14 -20 8 -26 -24 -26 -18 0 -46 0 -63 1 -16 0 -42 -6 -57 -12 -15
-6 -36 -8 -45 -5 -14 6 -11 10 17 22 19 9 41 19 48 22 23 12 117 10 124 -2z
m98 -16 c0 -5 -4 -10 -9 -10 -6 0 -13 5 -16 10 -3 6 1 10 9 10 9 0 16 -4 16
-10z m-335 -30 c0 -18 -16 -22 -35 -10 -13 9 -13 11 0 20 19 12 35 8 35 -10z
m-3220 0 c3 -5 15 -10 26 -10 26 0 49 -23 49 -49 0 -12 6 -21 15 -21 8 0 15
-4 15 -10 0 -16 -19 -12 -42 10 -30 28 -40 25 -36 -12 2 -18 -2 -33 -9 -35
-13 -5 -57 34 -65 58 -5 12 -8 11 -23 -3 -16 -15 -16 -18 -2 -32 9 -9 25 -16
36 -16 14 0 19 -5 15 -15 -7 -17 -44 -21 -44 -5 0 6 -7 10 -15 10 -8 0 -15 6
-15 13 0 7 -9 19 -20 27 -11 8 -20 20 -20 26 0 7 -6 14 -12 17 -7 2 -10 8 -6
12 5 5 16 -1 26 -13 13 -14 26 -19 40 -15 25 6 27 14 10 31 -6 6 -8 15 -4 19
4 4 11 1 16 -7 8 -13 12 -11 27 7 20 25 29 28 38 13z m305 -20 c0 -5 -4 -10
-10 -10 -5 0 -10 5 -10 10 0 6 5 10 10 10 6 0 10 -4 10 -10z m2830 0 c0 -5 -7
-10 -15 -10 -8 0 -15 5 -15 10 0 6 7 10 15 10 8 0 15 -4 15 -10z m-5858 -40
c23 -11 44 -16 47 -12 10 14 70 22 77 11 4 -6 1 -14 -5 -18 -15 -10 -3 -41 15
-41 8 0 14 -4 14 -10 0 -13 0 -13 -48 10 -46 22 -62 25 -62 10 0 -5 7 -10 15
-10 8 0 15 -7 15 -15 0 -17 -35 -21 -45 -5 -9 15 -19 12 -42 -10 -21 -19 -22
-19 -53 10 -33 31 -50 38 -50 20 0 -5 5 -10 11 -10 6 0 17 -7 25 -15 14 -13
14 -17 -1 -31 -13 -14 -18 -14 -33 -2 -30 23 -42 36 -42 46 0 5 -11 15 -25 22
-28 15 -33 30 -10 30 8 0 15 -4 15 -10 0 -19 55 -11 68 10 11 19 43 38 65 39
4 1 27 -8 49 -19z m5736 -16 c-9 -9 -21 -13 -27 -9 -16 10 -3 25 22 25 20 0
20 -1 5 -16z m11356 10 c9 -3 16 -10 16 -16 0 -13 26 -38 39 -38 6 0 11 -4 11
-10 0 -5 -7 -10 -15 -10 -8 0 -15 3 -15 8 0 4 -10 12 -22 17 -13 6 -22 18 -22
27 1 10 -4 14 -12 11 -8 -3 -14 0 -14 6 0 12 11 14 34 5z m203 -35 c1 -19 1
-20 -4 -4 -3 11 -10 24 -17 28 -7 6 -6 7 4 4 8 -2 16 -14 17 -28z m463 16 c0
-8 -4 -15 -9 -15 -5 0 -11 7 -15 15 -3 9 0 15 9 15 8 0 15 -7 15 -15z m-560
-5 c0 -5 7 -10 15 -10 8 0 15 -4 15 -10 0 -13 -16 -13 -41 0 -23 13 -25 30 -4
30 8 0 15 -4 15 -10z m-14170 -20 c0 -5 -4 -10 -10 -10 -5 0 -10 5 -10 10 0 6
5 10 10 10 6 0 10 -4 10 -10z m14607 -29 c15 -20 16 -31 2 -31 -13 0 -39 25
-39 38 0 6 -6 13 -12 16 -7 3 -2 3 12 -1 14 -3 30 -13 37 -22z m-740 -10 c31
-22 31 -55 1 -45 -13 4 -26 11 -29 17 -10 14 -29 -1 -22 -18 7 -21 -17 -18
-47 5 -31 24 -49 25 -65 3 -12 -17 -14 -17 -34 1 -35 32 -27 47 19 40 27 -4
40 -3 40 5 0 14 37 15 45 1 10 -15 25 -12 25 6 0 18 31 11 67 -15z m556 -22
c-8 -8 -14 -6 -22 9 -13 25 -2 37 18 17 11 -11 12 -18 4 -26z m-14183 10 c0
-14 -17 -10 -23 5 -4 10 -1 13 9 9 7 -3 14 -9 14 -14z m13397 4 c2 -6 -4 -13
-14 -17 -10 -3 -24 -9 -30 -12 -19 -9 -15 17 5 32 19 15 34 14 39 -3z m326 -4
c10 -11 16 -23 13 -27 -5 -4 -46 35 -46 45 0 10 18 0 33 -18z m375 3 c2 -7 -3
-12 -12 -12 -9 0 -16 7 -16 16 0 17 22 14 28 -4z m-15608 1 c0 -7 -35 -25
-105 -54 -35 -14 -188 -57 -265 -74 -41 -9 -91 -20 -110 -25 -95 -23 -846 -48
-853 -27 -1 4 -48 9 -105 12 -127 6 -149 11 -156 38 -3 12 -4 22 -3 23 1 2 36
-1 77 -6 99 -12 831 -6 942 7 47 6 101 16 120 21 18 6 71 16 118 22 47 7 117
20 155 30 154 40 185 46 185 33z m1243 -14 l22 -21 -25 4 c-14 2 -26 11 -28
21 -5 23 4 22 31 -4z m72 11 c3 -5 1 -10 -4 -10 -6 0 -11 5 -11 10 0 6 2 10 4
10 3 0 8 -4 11 -10z m2265 6 c0 -3 -4 -8 -10 -11 -5 -3 -10 -1 -10 4 0 6 5 11
10 11 6 0 10 -2 10 -4z m2250 -6 c0 -5 -4 -10 -9 -10 -6 0 -13 5 -16 10 -3 6
1 10 9 10 9 0 16 -4 16 -10z m9584 -5 c3 -8 1 -15 -4 -15 -6 0 -10 7 -10 15 0
8 2 15 4 15 2 0 6 -7 10 -15z m-9628 -23 c4 -24 -7 -35 -30 -26 -19 7 -21 40
-3 47 20 8 30 2 33 -21z m9861 -18 c-9 -9 -27 6 -27 22 0 13 2 13 16 -1 9 -9
14 -18 11 -21z m-17207 11 c14 -16 10 -18 -14 -9 -9 3 -16 10 -16 15 0 14 16
11 30 -6z m-365 -5 c3 -5 2 -10 -4 -10 -5 0 -13 5 -16 10 -3 6 -2 10 4 10 5 0
13 -4 16 -10z m7628 -4 c21 -16 22 -36 2 -36 -8 0 -15 5 -15 10 0 6 -7 10 -15
10 -8 0 -15 -4 -15 -10 0 -5 -16 -10 -35 -10 -24 0 -35 5 -35 15 0 11 8 13 30
9 22 -5 31 -2 36 10 7 19 23 20 47 2z m10054 -13 c-8 -7 -37 9 -31 19 3 5 12
4 20 -3 8 -6 13 -14 11 -16z m183 17 c0 -5 -2 -10 -4 -10 -3 0 -8 5 -11 10 -3
6 -1 10 4 10 6 0 11 -4 11 -10z m-17583 -6 c-3 -3 -12 -4 -19 -1 -8 3 -5 6 6
6 11 1 17 -2 13 -5z m10248 -8 c32 -2 61 -9 63 -15 5 -15 29 -14 34 1 3 9 9 8
21 -4 24 -23 22 -25 -25 -31 -26 -4 -52 0 -69 8 -37 20 -285 19 -315 0 -25
-16 -164 -32 -164 -19 0 5 5 16 11 24 8 11 12 12 16 3 6 -17 23 -16 42 1 9 7
61 19 115 25 55 6 102 13 104 15 1 2 26 2 55 0 29 -2 79 -5 112 -8z m7263 -21
c-3 -3 -9 2 -12 12 -6 14 -5 15 5 6 7 -7 10 -15 7 -18z m-17578 6 c0 -5 14
-11 30 -14 34 -7 37 -18 13 -43 -17 -17 -18 -17 -21 5 -2 12 -12 27 -23 34
-20 13 -25 27 -9 27 6 0 10 -4 10 -9z m110 -1 c0 -5 -7 -10 -15 -10 -8 0 -15
5 -15 10 0 6 7 10 15 10 8 0 15 -4 15 -10z m100 -22 c0 -12 -14 -10 -28 4 -19
19 -14 29 8 16 11 -7 20 -16 20 -20z m70 22 c0 -5 -4 -10 -10 -10 -5 0 -10 5
-10 10 0 6 5 10 10 10 6 0 10 -4 10 -10z m16840 3 c-1 -21 -27 -82 -46 -106
-12 -14 -39 -41 -60 -59 -33 -28 -38 -38 -36 -65 4 -37 3 -37 -31 -22 -20 9
-30 7 -61 -13 -20 -12 -39 -31 -42 -42 -4 -12 -9 -15 -16 -8 -6 6 -19 5 -36
-4 -15 -8 -33 -14 -41 -14 -7 0 -28 -9 -45 -19 -27 -16 -121 -45 -236 -71
-162 -37 -330 -51 -356 -29 -9 7 -45 14 -83 15 -76 3 -180 22 -199 37 -7 6
-10 17 -7 24 3 8 -7 27 -22 43 -21 22 -33 27 -62 25 -27 -2 -45 4 -70 24 -19
14 -39 29 -44 32 -5 4 -6 12 -2 18 4 8 11 9 18 3 7 -5 28 -13 47 -18 35 -8 44
-10 90 -13 38 -2 58 -17 42 -33 -16 -16 -15 -28 2 -28 8 0 17 -6 20 -12 5 -10
7 -10 12 0 10 22 24 13 24 -17 0 -32 27 -46 63 -31 22 8 21 8 -5 18 -32 13
-44 30 -30 44 8 8 16 6 27 -6 9 -9 20 -16 25 -16 5 0 12 -9 15 -20 10 -30 25
-24 25 10 0 35 23 41 42 10 7 -11 21 -20 30 -20 10 0 18 -7 18 -15 0 -20 17
-19 28 0 6 12 14 14 33 6 17 -7 19 -10 7 -10 -10 -1 -18 -8 -18 -16 0 -12 10
-13 48 -9 26 3 56 9 67 14 11 4 63 15 115 24 52 10 118 25 145 36 28 10 73 25
100 33 49 16 106 39 135 56 8 5 47 24 85 42 147 70 245 144 245 186 0 16 6 23
20 23 11 0 20 -3 20 -7z m184 -9 c9 -24 0 -29 -19 -11 -19 19 -19 27 -1 27 8
0 17 -7 20 -16z m386 0 c0 -17 -22 -14 -28 4 -2 7 3 12 12 12 9 0 16 -7 16
-16z m-17110 -14 c0 -5 -4 -10 -10 -10 -5 0 -10 5 -10 10 0 6 5 10 10 10 6 0
10 -4 10 -10z m9925 1 c7 -12 -12 -24 -25 -16 -11 7 -4 25 10 25 5 0 11 -4 15
-9z m90 -3 c10 -10 -32 -29 -49 -22 -8 3 -17 12 -20 19 -4 10 4 13 29 12 19
-2 37 -5 40 -9z m165 2 c22 -7 21 -8 -12 -9 -21 -1 -38 4 -38 9 0 11 14 11 50
0z m76 -5 c20 -19 4 -20 -22 0 -12 9 -14 14 -6 15 7 0 20 -7 28 -15z m-156 -5
c-20 -13 -33 -13 -25 0 3 6 14 10 23 10 15 0 15 -2 2 -10z m-3300 -10 c0 -5
-4 -10 -9 -10 -6 0 -13 5 -16 10 -3 6 1 10 9 10 9 0 16 -4 16 -10z m9867 -12
c-3 -8 -6 -5 -6 6 -1 11 2 17 5 13 3 -3 4 -12 1 -19z m-17470 -3 c8 -23 -4
-30 -22 -12 -19 20 -19 27 0 27 9 0 18 -7 22 -15z m6943 5 c0 -5 -4 -10 -10
-10 -5 0 -10 5 -10 10 0 6 5 10 10 10 6 0 10 -4 10 -10z m3127 4 c-3 -3 -12
-4 -19 -1 -8 3 -5 6 6 6 11 1 17 -2 13 -5z m7513 -19 c0 -8 -4 -15 -9 -15 -5
0 -11 7 -15 15 -3 9 0 15 9 15 8 0 15 -7 15 -15z m-5800 -27 c47 -10 105 -24
130 -29 25 -6 62 -13 82 -16 21 -3 36 -8 33 -12 -2 -4 24 -15 58 -25 34 -10
71 -21 82 -26 11 -5 31 -11 45 -14 14 -3 52 -12 85 -21 33 -9 78 -20 100 -25
36 -7 79 -17 220 -51 22 -5 75 -14 117 -19 43 -5 86 -11 95 -14 10 -3 81 -15
158 -27 77 -11 160 -24 185 -29 39 -7 174 -28 290 -46 138 -20 211 -38 226
-55 16 -18 16 -19 -25 -19 -23 0 -72 5 -109 10 -37 6 -125 14 -197 19 -161 12
-432 39 -462 46 -12 3 -64 5 -115 6 -160 1 -298 29 -538 108 -52 17 -111 36
-130 42 -19 6 -44 14 -55 19 -11 5 -37 16 -57 24 -21 9 -53 22 -70 30 -29 12
-95 39 -166 67 -13 5 -36 9 -52 9 -16 0 -31 4 -34 9 -3 5 -23 12 -43 16 -37 6
-73 30 -73 46 0 12 123 -1 220 -23z m-11460 -8 c0 -5 -7 -10 -15 -10 -8 0 -15
5 -15 10 0 6 7 10 15 10 8 0 15 -4 15 -10z m6400 -10 c11 -7 0 -10 -37 -10
-29 0 -53 5 -53 10 0 13 70 13 90 0z m-6153 -6 c-3 -3 -12 -4 -19 -1 -8 3 -5
6 6 6 11 1 17 -2 13 -5z m13068 -15 c233 -12 367 -30 435 -59 56 -23 122 -40
173 -43 15 -1 27 -5 27 -9 0 -5 0 -12 0 -17 0 -17 -38 -22 -81 -11 -23 6 -71
13 -108 16 -36 2 -77 7 -91 9 -80 18 -153 28 -307 44 -94 10 -176 22 -182 25
-6 4 -50 9 -98 13 -48 3 -96 9 -105 14 -9 5 -28 9 -42 9 -31 0 -56 9 -56 22 0
9 46 8 435 -13z m4090 11 c3 -6 -1 -7 -9 -4 -18 7 -21 14 -7 14 6 0 13 -4 16
-10z m-10315 -20 c0 -5 -4 -10 -9 -10 -6 0 -13 5 -16 10 -3 6 1 10 9 10 9 0
16 -4 16 -10z m-7120 -20 c0 -5 -7 -10 -15 -10 -8 0 -15 5 -15 10 0 6 7 10 15
10 8 0 15 -4 15 -10z m5910 0 c8 -5 12 -12 9 -15 -8 -8 -39 5 -39 16 0 11 11
11 30 -1z m950 -6 c0 -2 -7 -4 -15 -4 -8 0 -15 4 -15 10 0 5 7 7 15 4 8 -4 15
-8 15 -10z m-7680 -24 c0 -5 -4 -10 -10 -10 -5 0 -10 5 -10 10 0 6 5 10 10 10
6 0 10 -4 10 -10z m660 0 c0 -5 -4 -10 -10 -10 -5 0 -10 5 -10 10 0 6 5 10 10
10 6 0 10 -4 10 -10z m90 0 c0 -5 -4 -10 -10 -10 -5 0 -10 5 -10 10 0 6 5 10
10 10 6 0 10 -4 10 -10z m6980 0 c0 -5 -7 -10 -15 -10 -8 0 -15 5 -15 10 0 6
7 10 15 10 8 0 15 -4 15 -10z m10050 0 c0 -5 -4 -10 -10 -10 -5 0 -10 5 -10
10 0 6 5 10 10 10 6 0 10 -4 10 -10z m-15130 -19 c0 -9 -23 -21 -41 -21 -4 0
-6 7 -3 15 7 16 44 21 44 6z m-1913 -20 c10 -15 10 -21 0 -25 -9 -5 -9 -7 1
-12 13 -6 17 -24 5 -24 -5 0 -21 11 -37 25 -24 21 -27 27 -16 40 17 20 33 19
47 -4z m-857 -16 c0 -30 -11 -32 -27 -6 -10 15 -10 21 0 24 23 10 27 7 27 -18z
m7870 10 c0 -8 -7 -15 -15 -15 -16 0 -20 12 -8 23 11 12 23 8 23 -8z m7970 0
c47 -7 128 -25 180 -38 52 -14 127 -33 165 -42 39 -9 93 -23 120 -31 85 -23
178 -45 234 -55 60 -11 71 -15 71 -30 0 -19 -260 -2 -315 21 -11 4 -56 15
-100 25 -44 9 -114 28 -155 40 -41 13 -102 29 -135 35 -33 6 -81 16 -107 21
-26 6 -80 9 -120 8 -40 -2 -79 0 -86 5 -8 5 -23 3 -37 -4 -18 -10 -29 -8 -65
9 -24 12 -61 21 -82 21 -55 0 -47 18 10 23 114 9 344 5 422 -8z m-15166 -4 c4
-5 0 -12 -6 -14 -10 -4 -9 -8 2 -16 8 -5 11 -13 7 -17 -12 -12 -38 21 -31 39
7 19 20 22 28 8z m1563 3 c-3 -3 -12 -4 -19 -1 -8 3 -5 6 6 6 11 1 17 -2 13
-5z m-1297 -24 c0 -5 -4 -10 -10 -10 -5 0 -10 5 -10 10 0 6 5 10 10 10 6 0 10
-4 10 -10z m2052 0 c-12 -5 -29 -15 -37 -22 -9 -7 -21 -18 -28 -23 -21 -18
-75 -55 -80 -55 -3 0 -3 9 0 20 3 11 13 20 22 20 9 0 25 11 35 25 10 14 27 25
37 25 11 0 19 5 19 10 0 6 12 10 28 9 26 0 26 -1 4 -9z m13764 -11 c10 -17
-13 -36 -27 -22 -12 12 -4 33 11 33 5 0 12 -5 16 -11z m-17450 -14 c-19 -14
-19 -15 -1 -35 10 -11 14 -20 9 -20 -13 1 -44 26 -44 35 0 10 32 34 45 34 6 0
1 -6 -9 -14z m1704 0 c0 -8 -9 -15 -20 -15 -17 0 -19 2 -8 15 17 19 28 19 28
0z m61 4 c11 -5 17 -14 14 -18 -3 -5 2 -11 10 -15 8 -3 15 -10 15 -16 0 -15
-77 -13 -83 3 -4 9 -8 8 -16 -3 -10 -13 -12 -13 -21 0 -11 18 21 33 54 25 12
-3 15 -2 9 1 -13 6 -18 34 -7 34 3 0 14 -5 25 -11z m16719 1 c0 -5 -7 -10 -15
-10 -8 0 -15 5 -15 10 0 6 7 10 15 10 8 0 15 -4 15 -10z m-18540 -31 c0 -5 -4
-9 -10 -9 -5 0 -10 -7 -10 -16 0 -22 -31 -13 -40 12 -7 18 -4 20 26 21 19 1
34 -3 34 -8z m1399 -11 c-11 -7 -11 -11 -1 -15 15 -6 16 -23 1 -23 -11 0 -39
24 -39 34 0 3 7 6 15 6 8 0 15 5 15 11 0 5 5 7 11 3 8 -4 7 -9 -2 -16z m279
15 c-10 -2 -18 -12 -18 -21 0 -14 -2 -15 -10 -2 -10 16 5 30 30 29 11 -1 10
-3 -2 -6z m9082 -3 c0 -11 -196 -7 -207 4 -4 3 42 6 100 6 66 0 107 -4 107
-10z m7740 0 c0 -5 -5 -10 -11 -10 -5 0 -7 5 -4 10 3 6 8 10 11 10 2 0 4 -4 4
-10z m-17020 -20 c0 -5 -4 -10 -10 -10 -5 0 -10 5 -10 10 0 6 5 10 10 10 6 0
10 -4 10 -10z m470 0 c0 -5 -4 -10 -10 -10 -5 0 -10 5 -10 10 0 6 5 10 10 10
6 0 10 -4 10 -10z m16630 0 c0 -5 -4 -10 -10 -10 -5 0 -10 5 -10 10 0 6 5 10
10 10 6 0 10 -4 10 -10z m-215 -20 c3 -5 1 -10 -4 -10 -6 0 -11 5 -11 10 0 6
2 10 4 10 3 0 8 -4 11 -10z m-16935 -30 c0 -5 -4 -10 -10 -10 -5 0 -10 5 -10
10 0 6 5 10 10 10 6 0 10 -4 10 -10z m400 -10 c11 -11 20 -24 20 -30 0 -20
-16 -10 -49 33 -19 24 4 22 29 -3z m16517 14 c-3 -3 -12 -4 -19 -1 -8 3 -5 6
6 6 11 1 17 -2 13 -5z m-16757 -23 c0 -14 -28 -33 -39 -27 -16 10 -1 36 20 36
10 0 19 -4 19 -9z m452 -20 c3 -20 -1 -35 -14 -45 -24 -21 -58 -21 -58 0 0 12
6 15 25 10 29 -7 35 13 10 34 -22 18 -18 30 9 30 19 0 25 -6 28 -29z m-92 -6
c0 -8 -4 -15 -10 -15 -5 0 -10 7 -10 15 0 8 5 15 10 15 6 0 10 -7 10 -15z
m280 5 c0 -5 -7 -10 -15 -10 -8 0 -15 5 -15 10 0 6 7 10 15 10 8 0 15 -4 15
-10z m17100 0 c0 -5 -4 -10 -10 -10 -5 0 -10 5 -10 10 0 6 5 10 10 10 6 0 10
-4 10 -10z m198 -2 c-6 -18 -28 -21 -28 -4 0 9 7 16 16 16 9 0 14 -5 12 -12z
m-7990 -38 c25 0 43 -3 39 -6 -8 -8 -157 -12 -157 -4 0 15 17 21 44 16 16 -3
49 -6 74 -6z m-9918 -10 c0 -5 -4 -10 -10 -10 -5 0 -10 5 -10 10 0 6 5 10 10
10 6 0 10 -4 10 -10z m9770 0 c0 -5 -4 -10 -9 -10 -6 0 -13 5 -16 10 -3 6 1
10 9 10 9 0 16 -4 16 -10z m-9535 -40 c3 -5 2 -10 -4 -10 -5 0 -13 5 -16 10
-3 6 -2 10 4 10 5 0 13 -4 16 -10z"/>
<path d="M16460 11013 c-196 -24 -389 -84 -490 -154 -149 -102 -241 -201 -325
-349 -82 -144 -107 -231 -107 -365 0 -161 38 -308 128 -490 98 -199 273 -356
484 -434 90 -33 145 -41 278 -41 210 0 392 46 531 135 9 6 32 21 51 33 65 41
201 185 251 267 69 112 99 211 109 365 5 69 12 159 16 201 9 101 -19 207 -89
344 -44 85 -67 115 -157 206 -154 156 -273 220 -478 258 -125 23 -168 28 -202
24z m125 -634 c28 -10 78 -40 110 -67 148 -118 183 -301 89 -458 -48 -80 -64
-95 -140 -135 -64 -33 -71 -34 -173 -34 -91 1 -112 4 -151 24 -102 52 -147
105 -174 202 -14 54 -30 221 -16 184 5 -16 8 -12 14 20 23 127 119 240 231
273 85 25 124 23 210 -9z m-528 -245 c-3 -3 -12 -4 -19 -1 -8 3 -5 6 6 6 11 1
17 -2 13 -5z m-7 -24 c0 -5 -4 -10 -10 -10 -5 0 -10 5 -10 10 0 6 5 10 10 10
6 0 10 -4 10 -10z m-10 -30 c0 -5 -2 -10 -4 -10 -3 0 -8 5 -11 10 -3 6 -1 10
4 10 6 0 11 -4 11 -10z"/>
<path d="M8230 740 c0 -5 7 -10 15 -10 8 0 15 5 15 10 0 6 -7 10 -15 10 -8 0
-15 -4 -15 -10z"/>
<path d="M5460 680 c-17 -10 -14 -15 17 -24 25 -8 42 12 22 25 -17 11 -21 11
-39 -1z"/>
<path d="M5530 290 c0 -5 5 -10 10 -10 6 0 10 5 10 10 0 6 -4 10 -10 10 -5 0
-10 -4 -10 -10z"/>
<path d="M12284 15405 c-129 -41 -189 -95 -243 -224 -45 -107 -23 -246 56
-349 54 -71 225 -155 297 -146 16 2 46 15 67 29 21 14 43 25 49 25 6 0 32 11
58 24 94 48 158 143 169 250 7 65 -12 176 -37 225 -22 43 -103 123 -145 144
-73 36 -196 46 -271 22z"/>
<path d="M10884 15151 c-179 -55 -284 -177 -292 -341 -5 -90 6 -137 50 -210
43 -71 115 -125 203 -152 93 -29 164 -28 245 2 82 31 173 118 216 205 25 52
29 71 29 145 0 75 -4 92 -30 145 -16 32 -54 83 -83 112 -102 100 -215 132
-338 94z"/>
<path d="M9355 14775 c-27 -8 -52 -14 -56 -15 -24 -1 -138 -92 -173 -137 -77
-97 -99 -205 -76 -364 12 -80 25 -108 85 -170 77 -81 223 -149 318 -149 52 0
134 23 201 57 204 103 287 381 174 581 -45 79 -137 155 -227 187 -61 21 -186
26 -246 10z"/>
<path d="M7800 14196 c-104 -29 -185 -98 -252 -214 -31 -53 -58 -159 -58 -225
0 -66 46 -216 79 -257 63 -79 170 -137 286 -155 112 -17 297 47 381 130 27 27
60 77 82 122 30 64 36 90 40 159 6 105 -9 162 -60 241 -77 119 -175 184 -305
203 -87 12 -137 11 -193 -4z"/>
<path d="M6300 13391 c-43 -14 -113 -52 -163 -88 -86 -63 -150 -186 -149 -290
1 -136 92 -292 204 -349 41 -21 61 -24 157 -24 133 0 209 21 284 78 86 65 137
185 137 324 0 69 -43 168 -96 223 -65 65 -199 127 -284 131 -36 2 -76 0 -90
-5z"/>
<path d="M4705 12921 c-82 -24 -111 -41 -170 -99 -67 -66 -102 -132 -126 -244
-20 -89 -20 -96 -4 -163 23 -94 65 -183 106 -223 53 -53 159 -102 242 -111 92
-10 134 -5 230 26 102 33 163 76 214 151 59 87 86 163 87 247 2 138 -59 264
-164 339 -75 54 -105 66 -198 81 -110 18 -143 18 -217 -4z"/>
<path d="M14678 2693 c6 -2 18 -2 25 0 6 3 1 5 -13 5 -14 0 -19 -2 -12 -5z"/>
<path d="M14468 2473 c-10 -2 -18 -8 -18 -11 0 -4 -14 -8 -31 -8 -35 -2 -49
-12 -30 -23 10 -6 8 -10 -6 -15 -16 -7 -17 -8 -1 -17 9 -5 34 -9 55 -9 21 1
75 1 121 0 48 0 82 4 82 10 0 6 10 11 23 11 16 1 18 2 5 6 -10 2 -18 10 -18
17 0 28 -125 55 -182 39z"/>
<path d="M18892 2451 c7 -11 15 -18 19 -15 4 2 10 0 14 -6 3 -5 11 -10 17 -10
6 0 -2 11 -18 25 -35 30 -49 32 -32 6z"/>
<path d="M19015 2380 c6 -10 67 -42 72 -37 1 2 -15 13 -38 25 -22 12 -37 17
-34 12z"/>
<path d="M19100 2331 c0 -5 7 -11 15 -15 8 -3 15 -1 15 3 0 5 -7 11 -15 15 -8
3 -15 1 -15 -3z"/>
<path d="M18885 2080 c-3 -6 1 -7 9 -4 18 7 21 14 7 14 -6 0 -13 -4 -16 -10z"/>
<path d="M18910 2070 c-9 -6 -7 -11 10 -20 12 -6 24 -9 28 -6 3 3 -1 6 -9 6
-11 0 -12 2 -1 9 11 7 11 9 -1 14 -7 3 -20 2 -27 -3z"/>
<path d="M18970 2026 c0 -2 7 -7 16 -10 8 -3 12 -2 9 4 -6 10 -25 14 -25 6z"/>
<path d="M4950 1850 c0 -5 5 -10 11 -10 5 0 7 5 4 10 -3 6 -8 10 -11 10 -2 0
-4 -4 -4 -10z"/>
<path d="M4962 1818 c2 -5 7 -9 11 -9 4 1 14 1 22 1 26 0 16 15 -10 16 -15 1
-25 -2 -23 -8z"/>
<path d="M4825 1770 c-8 -13 25 -13 45 0 12 8 9 10 -12 10 -15 0 -30 -4 -33
-10z"/>
<path d="M8708 533 c7 -3 16 -2 19 1 4 3 -2 6 -13 5 -11 0 -14 -3 -6 -6z"/>
<path d="M8758 533 c6 -2 18 -2 25 0 6 3 1 5 -13 5 -14 0 -19 -2 -12 -5z"/>
<path d="M7995 500 c3 -5 10 -10 16 -10 5 0 9 5 9 10 0 6 -7 10 -16 10 -8 0
-12 -4 -9 -10z"/>
<path d="M8350 490 c0 -5 7 -10 15 -10 8 0 15 5 15 10 0 6 -7 10 -15 10 -8 0
-15 -4 -15 -10z"/>
<path d="M9365 479 c-27 -5 -119 -13 -202 -18 -148 -9 -182 -16 -288 -62 -32
-14 263 7 370 26 47 9 218 55 224 61 6 6 -48 2 -104 -7z"/>
<path d="M7826 471 c-4 -7 -5 -15 -2 -18 9 -9 19 4 14 18 -4 11 -6 11 -12 0z"/>
<path d="M8657 454 c-4 -4 -48 -10 -99 -15 -105 -8 -198 -27 -198 -40 0 -5
-13 -9 -29 -9 -17 0 -33 -5 -37 -11 -5 -9 9 -10 50 -5 47 6 56 5 56 -8 0 -9 6
-16 14 -16 9 0 12 7 9 20 -3 11 -1 20 5 20 21 0 42 -12 42 -24 0 -12 40 -36
59 -36 5 0 8 8 7 18 -1 13 8 18 37 20 29 3 37 7 37 23 0 20 10 23 59 13 37 -8
39 -17 9 -32 -23 -10 -23 -11 4 -11 18 -1 33 7 40 19 10 15 24 20 54 20 33 0
43 4 47 20 4 16 14 20 51 20 25 0 46 5 46 10 0 11 -252 14 -263 4z m123 -24
c0 -5 -7 -10 -15 -10 -8 0 -15 5 -15 10 0 6 7 10 15 10 8 0 15 -4 15 -10z
m-240 -45 c0 -8 -7 -15 -15 -15 -8 0 -15 7 -15 15 0 8 7 15 15 15 8 0 15 -7
15 -15z"/>
<path d="M12566 425 c-7 -19 5 -19 30 0 19 14 19 14 -2 15 -12 0 -24 -7 -28
-15z"/>
<path d="M8155 400 c-3 -5 1 -10 9 -10 9 0 16 5 16 10 0 6 -4 10 -9 10 -6 0
-13 -4 -16 -10z"/>
<path d="M9585 401 c-6 -6 -30 -11 -55 -14 -39 -3 -37 -4 16 -5 47 -2 63 2 68
13 6 17 -14 21 -29 6z"/>
<path d="M4990 370 c0 -13 20 -13 40 0 12 8 9 10 -12 10 -16 0 -28 -4 -28 -10z"/>
<path d="M8120 370 c0 -5 7 -7 15 -4 8 4 15 8 15 10 0 2 -7 4 -15 4 -8 0 -15
-4 -15 -10z"/>
<path d="M8813 373 c9 -2 25 -2 35 0 9 3 1 5 -18 5 -19 0 -27 -2 -17 -5z"/>
<path d="M9800 370 c-18 -11 -13 -16 25 -23 17 -4 24 -4 18 -1 -7 3 -13 12
-13 20 0 16 -9 18 -30 4z"/>
<path d="M8246 351 c-15 -10 -24 -21 -19 -24 5 -3 15 -2 23 4 8 5 11 9 5 10
-5 0 1 4 15 8 14 4 20 10 14 13 -6 4 -23 -1 -38 -11z"/>
<path d="M12230 360 c-11 -7 -5 -10 23 -10 20 0 37 -4 37 -10 0 -5 -5 -10 -11
-10 -5 0 -7 -5 -3 -11 5 -8 -1 -10 -18 -6 -17 5 -30 2 -38 -8 -10 -12 -7 -15
13 -20 19 -5 33 2 72 39 26 25 43 46 37 46 -6 0 -14 -5 -17 -10 -4 -6 -16 -8
-28 -5 -12 4 -29 8 -37 11 -8 2 -22 -1 -30 -6z"/>
<path d="M9396 353 c-3 -4 -25 -10 -49 -14 -40 -6 -38 -7 21 -8 34 0 62 3 62
8 0 5 8 12 18 14 9 3 3 5 -14 6 -17 0 -34 -2 -38 -6z"/>
<path d="M12053 326 c-28 -6 -55 -14 -59 -18 -4 -5 -18 -8 -30 -8 -13 0 -26
-4 -29 -10 -3 -5 1 -10 9 -10 9 0 16 -4 16 -10 0 -5 -17 -10 -37 -10 -21 -1
-56 -5 -78 -10 -334 -77 -473 -103 -617 -117 -32 -3 -58 -9 -58 -14 0 -12 137
-11 159 1 10 5 58 12 107 16 72 5 102 3 150 -11 56 -18 57 -19 29 -25 -22 -5
-13 -7 35 -8 36 -1 83 -3 105 -4 38 -1 70 4 214 35 35 8 72 12 81 10 10 -3 21
0 24 6 5 7 -2 11 -15 11 -12 0 -20 2 -17 5 10 10 133 13 151 3 34 -18 16 12
-44 72 -34 34 -59 63 -56 66 6 6 58 -17 75 -33 6 -6 12 -19 12 -27 0 -9 8 -16
19 -16 14 0 21 -9 26 -31 6 -25 11 -30 28 -25 12 3 28 6 35 6 6 0 12 5 12 10
0 6 -7 10 -15 10 -8 0 -15 4 -15 9 0 5 -20 24 -45 42 -24 19 -45 42 -45 51 0
9 -6 19 -12 22 -7 3 -3 3 8 1 14 -4 24 0 28 10 4 12 -4 15 -47 14 -29 -1 -75
-7 -104 -13z m32 -96 c3 -5 -1 -10 -9 -10 -9 0 -16 5 -16 10 0 6 4 10 9 10 6
0 13 -4 16 -10z m45 -30 c0 -5 -9 -10 -20 -10 -11 0 -20 5 -20 10 0 6 9 10 20
10 11 0 20 -4 20 -10z"/>
<path d="M12320 315 c0 -8 7 -15 15 -15 8 0 15 7 15 15 0 8 -7 15 -15 15 -8 0
-15 -7 -15 -15z"/>
<path d="M9240 310 c0 -5 6 -10 14 -10 8 0 18 5 21 10 3 6 -3 10 -14 10 -12 0
-21 -4 -21 -10z"/>
<path d="M9838 303 c7 -3 16 -2 19 1 4 3 -2 6 -13 5 -11 0 -14 -3 -6 -6z"/>
<path d="M5177 294 c-4 -4 -4 -11 -1 -15 8 -14 31 -10 38 6 5 15 -24 22 -37 9z"/>
<path d="M7760 255 c0 -14 7 -28 15 -31 17 -7 21 -34 4 -34 -6 0 -17 7 -25 15
-9 8 -22 15 -30 15 -20 0 -17 -30 4 -36 9 -3 25 -10 34 -15 24 -12 28 -12 28
7 0 12 7 15 25 12 17 -4 32 3 51 23 16 17 22 29 14 29 -7 0 -18 -8 -25 -17
-12 -16 -14 -16 -29 -1 -9 9 -16 19 -16 23 0 10 -28 35 -39 35 -6 0 -11 -11
-11 -25z"/>
<path d="M5129 249 c16 -15 26 -18 33 -11 15 15 0 32 -29 32 l-27 0 23 -21z"/>
<path d="M7138 263 c7 -3 16 -2 19 1 4 3 -2 6 -13 5 -11 0 -14 -3 -6 -6z"/>
<path d="M8818 263 c7 -3 16 -2 19 1 4 3 -2 6 -13 5 -11 0 -14 -3 -6 -6z"/>
<path d="M5040 245 c0 -17 2 -18 24 -9 23 9 20 24 -4 24 -11 0 -20 -7 -20 -15z"/>
<path d="M8167 253 c-11 -11 -8 -23 6 -23 8 0 14 7 14 15 0 16 -9 19 -20 8z"/>
<path d="M8528 253 c7 -3 16 -2 19 1 4 3 -2 6 -13 5 -11 0 -14 -3 -6 -6z"/>
<path d="M12280 245 c0 -8 5 -15 10 -15 6 0 10 7 10 15 0 8 -4 15 -10 15 -5 0
-10 -7 -10 -15z"/>
<path d="M8100 240 c0 -5 5 -10 10 -10 6 0 10 5 10 10 0 6 -4 10 -10 10 -5 0
-10 -4 -10 -10z"/>
<path d="M6828 233 c6 -2 18 -2 25 0 6 3 1 5 -13 5 -14 0 -19 -2 -12 -5z"/>
<path d="M8427 200 c-28 -28 -6 -31 28 -4 26 20 27 24 10 23 -11 0 -28 -8 -38
-19z"/>
<path d="M8668 213 c6 -2 18 -2 25 0 6 3 1 5 -13 5 -14 0 -19 -2 -12 -5z"/>
<path d="M4880 202 c0 -10 44 -32 62 -32 7 0 2 9 -10 20 -21 20 -52 27 -52 12z"/>
<path d="M12320 195 c0 -8 7 -15 15 -15 8 0 15 7 15 15 0 8 -7 15 -15 15 -8 0
-15 -7 -15 -15z"/>
<path d="M6965 190 c-3 -6 5 -10 19 -10 14 0 28 5 31 10 3 6 -5 10 -19 10 -14
0 -28 -4 -31 -10z"/>
<path d="M8608 193 c6 -2 18 -2 25 0 6 3 1 5 -13 5 -14 0 -19 -2 -12 -5z"/>
<path d="M6708 183 c6 -2 18 -2 25 0 6 3 1 5 -13 5 -14 0 -19 -2 -12 -5z"/>
<path d="M6 172 c-3 -6 0 -13 6 -15 10 -4 10 -6 1 -6 -9 -1 -13 -23 -13 -76
l0 -75 120 0 c66 0 120 3 120 6 0 3 -5 14 -10 25 -15 26 -1 24 34 -6 32 -27
76 -34 76 -11 0 8 -6 16 -12 19 -8 2 -9 8 -4 13 5 5 11 4 13 -3 3 -7 11 -13
18 -13 7 0 15 -7 19 -15 6 -17 56 -21 56 -5 0 6 9 10 19 10 11 0 23 -4 26 -10
4 -6 161 -10 443 -9 292 1 417 4 377 10 -33 5 -67 12 -75 15 -8 4 -49 10 -90
15 -123 13 -222 28 -239 35 -9 3 -54 10 -101 15 -47 4 -121 13 -165 19 -44 5
-150 17 -235 25 -164 15 -295 31 -346 41 -18 3 -34 1 -38 -4z m54 -42 c0 -5
-4 -10 -10 -10 -5 0 -10 5 -10 10 0 6 5 10 10 10 6 0 10 -4 10 -10z m140 -45
c0 -19 -16 -19 -24 0 -3 9 0 15 9 15 8 0 15 -7 15 -15z m90 0 c0 -19 -6 -19
-14 0 -3 8 -1 15 4 15 6 0 10 -7 10 -15z"/>
<path d="M4850 173 c1 -19 18 -33 34 -27 15 6 15 7 -1 20 -20 15 -33 18 -33 7z"/>
<path d="M6925 170 c-3 -5 1 -10 9 -10 9 0 16 5 16 10 0 6 -4 10 -9 10 -6 0
-13 -4 -16 -10z"/>
<path d="M23920 168 c-14 -7 -50 -22 -80 -36 -30 -13 -69 -30 -87 -38 -17 -8
-34 -14 -37 -14 -3 0 -28 -9 -54 -21 -26 -12 -56 -25 -67 -29 -72 -28 -72 -29
38 -29 65 -1 107 3 107 9 0 6 7 10 15 10 8 0 15 -4 15 -10 0 -15 87 -12 94 3
5 9 7 9 12 0 8 -18 43 -16 50 2 4 8 15 15 26 15 32 0 45 22 45 80 0 70 -18 84
-77 58z m55 -68 c4 -6 -5 -10 -19 -10 -14 0 -26 5 -26 10 0 6 9 10 19 10 11 0
23 -4 26 -10z m-138 -46 c-3 -3 -12 -4 -19 -1 -8 3 -5 6 6 6 11 1 17 -2 13 -5z"/>
<path d="M10603 163 c9 -2 25 -2 35 0 9 3 1 5 -18 5 -19 0 -27 -2 -17 -5z"/>
<path d="M4774 145 c-11 -7 -15 -17 -11 -21 4 -5 13 -2 18 6 8 11 12 12 16 3
5 -14 33 -18 33 -5 0 4 -9 13 -19 19 -15 9 -23 9 -37 -2z"/>
<path d="M5158 153 c7 -3 16 -2 19 1 4 3 -2 6 -13 5 -11 0 -14 -3 -6 -6z"/>
<path d="M5250 136 c0 -10 9 -16 25 -16 14 0 25 5 25 10 0 6 -4 10 -9 10 -5 0
-16 3 -25 6 -11 4 -16 1 -16 -10z"/>
<path d="M6868 143 c6 -2 18 -2 25 0 6 3 1 5 -13 5 -14 0 -19 -2 -12 -5z"/>
<path d="M7998 143 c7 -3 16 -2 19 1 4 3 -2 6 -13 5 -11 0 -14 -3 -6 -6z"/>
<path d="M4900 130 c0 -5 5 -10 10 -10 6 0 10 5 10 10 0 6 -4 10 -10 10 -5 0
-10 -4 -10 -10z"/>
<path d="M5643 125 c-18 -20 -16 -25 7 -25 13 0 20 7 20 20 0 23 -10 25 -27 5z"/>
<path d="M7715 130 c4 -6 11 -8 16 -5 14 9 11 15 -7 15 -8 0 -12 -5 -9 -10z"/>
<path d="M10453 133 c9 -2 25 -2 35 0 9 3 1 5 -18 5 -19 0 -27 -2 -17 -5z"/>
<path d="M4695 120 c-68 -29 -210 -82 -265 -98 l-65 -20 108 -1 c70 -1 106 3
102 9 -3 6 3 10 14 10 11 0 23 -4 26 -10 9 -14 22 -12 29 5 3 8 -2 22 -11 31
-15 15 -14 16 8 12 13 -2 23 -9 21 -17 -1 -7 3 -11 10 -9 7 3 14 17 16 31 3
24 22 40 22 19 0 -4 16 -8 35 -8 38 0 46 11 15 21 -11 3 -20 13 -20 21 0 16
-15 17 -45 4z"/>
<path d="M6795 120 c3 -5 15 -10 26 -10 10 0 19 5 19 10 0 6 -12 10 -26 10
-14 0 -23 -4 -19 -10z"/>
<path d="M10345 122 c-44 -3 -55 -6 -40 -12 14 -6 3 -9 -38 -9 -40 -1 -56 -4
-51 -12 7 -12 42 -9 152 14 35 7 60 16 56 20 -4 4 -10 6 -13 5 -3 -1 -33 -4
-66 -6z"/>
<path d="M6730 100 c-11 -7 -7 -10 18 -10 17 0 32 5 32 10 0 13 -30 13 -50 0z"/>
<path d="M6898 103 c-16 -2 -28 -11 -28 -19 0 -15 -16 -19 -24 -5 -7 11 -198
2 -210 -10 -6 -5 -22 -9 -37 -9 -15 0 -30 -4 -33 -9 -3 -5 -20 -11 -38 -14
-18 -3 -55 -12 -83 -20 -48 -15 -41 -15 186 -16 209 -1 238 1 250 16 13 15 11
16 -23 9 -42 -8 -53 8 -13 18 14 4 25 11 25 16 0 6 11 10 25 10 15 0 25 6 25
14 0 8 8 17 18 19 21 6 -2 6 -40 0z"/>
<path d="M7920 90 l-25 -20 23 0 c13 0 20 4 17 10 -3 6 1 10 9 10 9 0 16 5 16
10 0 15 -12 12 -40 -10z"/>
<path d="M10849 100 c-9 -5 -49 -13 -88 -16 -39 -4 -74 -11 -77 -15 -3 -5 -32
-9 -65 -9 -98 0 -66 -18 45 -25 66 -5 116 -3 135 3 16 6 39 8 50 5 25 -6 27 9
5 31 -14 15 -2 16 128 17 88 1 131 4 113 9 -44 11 -227 11 -246 0z"/>
<path d="M5270 90 c0 -6 11 -16 25 -22 20 -9 28 -9 38 1 9 9 9 14 -3 21 -20
13 -60 13 -60 0z"/>
<path d="M5370 90 c0 -5 6 -10 14 -10 8 0 18 5 21 10 3 6 -3 10 -14 10 -12 0
-21 -4 -21 -10z"/>
<path d="M12635 91 c-16 -4 -40 -13 -52 -19 -12 -7 -50 -15 -84 -19 -47 -5
-57 -8 -44 -16 19 -11 111 -3 129 11 6 5 40 15 76 22 86 17 108 30 50 29 -25
-1 -58 -4 -75 -8z"/>
<path d="M7678 83 c7 -3 16 -2 19 1 4 3 -2 6 -13 5 -11 0 -14 -3 -6 -6z"/>
<path d="M10125 70 c-27 -7 -25 -8 18 -9 30 -1 46 3 42 9 -7 11 -16 11 -60 0z"/>
<path d="M11665 70 c-3 -5 1 -10 9 -10 9 0 16 5 16 10 0 6 -4 10 -9 10 -6 0
-13 -4 -16 -10z"/>
<path d="M4863 55 c-7 -8 -9 -16 -4 -19 5 -3 12 1 15 10 8 22 4 25 -11 9z"/>
<path d="M4972 58 c2 -6 10 -14 16 -16 7 -2 10 2 6 12 -7 18 -28 22 -22 4z"/>
<path d="M5210 61 c0 -5 7 -12 16 -15 24 -9 27 -7 10 9 -17 17 -26 19 -26 6z"/>
<path d="M7320 51 c0 -5 -10 -12 -22 -16 -19 -6 -20 -8 -6 -12 10 -2 27 5 40
16 18 18 19 21 5 21 -9 0 -17 -4 -17 -9z"/>
<path d="M7870 49 c0 -5 5 -7 10 -4 6 3 10 8 10 11 0 2 -4 4 -10 4 -5 0 -10
-5 -10 -11z"/>
<path d="M4760 40 c0 -5 5 -10 10 -10 6 0 10 5 10 10 0 6 -4 10 -10 10 -5 0
-10 -4 -10 -10z"/>
<path d="M5140 41 c0 -11 25 -21 51 -21 12 0 17 5 14 10 -4 6 -15 8 -26 5 -11
-4 -19 -2 -19 4 0 6 -4 11 -10 11 -5 0 -10 -4 -10 -9z"/>
<path d="M5445 43 c-11 -2 -31 -13 -45 -23 l-25 -20 23 0 c13 0 20 4 17 10 -3
6 1 10 9 10 9 0 16 -4 16 -10 0 -5 14 -10 30 -10 17 0 30 3 30 6 0 11 -21 44
-28 43 -4 -1 -16 -4 -27 -6z"/>
<path d="M9963 43 c20 -2 54 -2 75 0 20 2 3 4 -38 4 -41 0 -58 -2 -37 -4z"/>
<path d="M16268 43 c7 -3 16 -2 19 1 4 3 -2 6 -13 5 -11 0 -14 -3 -6 -6z"/>
<path d="M4803 25 c0 -8 4 -12 9 -9 4 3 8 0 8 -7 0 -7 2 -10 5 -7 7 7 -5 38
-14 38 -4 0 -8 -7 -8 -15z"/>
<path d="M7825 20 c-10 -11 -13 -20 -7 -20 7 0 12 5 12 10 0 6 7 10 15 10 8 0
15 5 15 10 0 16 -15 12 -35 -10z"/>
<path d="M11810 30 c-11 -7 -7 -10 17 -10 17 0 35 5 38 10 8 13 -35 13 -55 0z"/>
<path d="M5652 22 c-12 -2 -20 -8 -17 -13 8 -12 55 -12 55 0 0 14 -11 18 -38
13z"/>
<path d="M9888 23 c7 -3 16 -2 19 1 4 3 -2 6 -13 5 -11 0 -14 -3 -6 -6z"/>
<path d="M10463 23 c9 -2 23 -2 30 0 6 3 -1 5 -18 5 -16 0 -22 -2 -12 -5z"/>
<path d="M23030 15 c-11 -13 -8 -15 19 -15 33 0 42 14 15 24 -21 8 -20 8 -34
-9z"/>
<path d="M4710 10 c0 -5 7 -10 15 -10 8 0 15 5 15 10 0 6 -7 10 -15 10 -8 0
-15 -4 -15 -10z"/>
<path d="M7233 3 c9 -2 23 -2 30 0 6 3 -1 5 -18 5 -16 0 -22 -2 -12 -5z"/>
<path d="M10618 3 c7 -3 16 -2 19 1 4 3 -2 6 -13 5 -11 0 -14 -3 -6 -6z"/>
<path d="M11763 3 c9 -2 23 -2 30 0 6 3 -1 5 -18 5 -16 0 -22 -2 -12 -5z"/>
<path d="M22853 3 c9 -2 23 -2 30 0 6 3 -1 5 -18 5 -16 0 -22 -2 -12 -5z"/>
</g>
</svg>
